{"glyphs":{"0":{"ha":981,"x_min":82,"x_max":899,"o":"m 482 -19 q 192 115 301 -19 q 82 471 82 250 q 201 846 82 700 q 499 992 321 992 q 785 852 672 992 q 899 494 899 713 q 785 122 899 263 q 482 -19 671 -19 m 496 835 q 329 740 399 835 q 260 471 260 646 q 322 222 260 304 q 485 140 383 140 q 658 227 593 140 q 724 494 724 314 q 658 747 724 658 q 496 835 592 835 z "},"1":{"ha":513,"x_min":63,"x_max":378,"o":"m 378 0 l 200 0 l 200 721 q 78 671 142 682 l 63 821 q 165 877 108 831 q 242 972 222 924 l 378 972 l 378 0 z "},"2":{"ha":735,"x_min":61,"x_max":656,"o":"m 656 0 l 61 0 q 322 398 231 244 q 433 606 413 551 q 453 704 453 661 q 417 806 453 769 q 318 843 382 843 q 94 694 192 843 l 72 854 q 173 947 99 903 q 354 992 247 992 q 557 913 493 992 q 621 731 621 835 q 562 507 621 636 q 367 172 503 378 l 656 172 l 656 0 z "},"3":{"ha":749,"x_min":50,"x_max":667,"o":"m 311 -19 q 148 7 228 -19 q 50 56 68 33 l 93 219 q 184 171 124 190 q 304 151 244 151 q 492 293 492 151 q 453 415 492 369 q 314 460 415 460 l 189 460 l 204 597 l 268 597 q 453 725 453 597 q 310 842 453 842 q 139 794 192 842 l 111 928 q 197 972 136 953 q 331 992 257 992 q 483 967 419 992 q 576 901 546 942 q 619 819 607 860 q 632 733 632 778 q 539 539 632 607 q 667 301 667 463 q 562 65 667 149 q 311 -19 457 -19 z "},"4":{"ha":807,"x_min":14,"x_max":728,"o":"m 728 264 l 610 264 l 610 0 l 432 0 l 432 264 l 14 264 l 461 972 l 610 972 l 610 408 l 728 408 l 728 264 m 432 408 l 432 700 l 256 408 l 432 408 z "},"5":{"ha":746,"x_min":68,"x_max":676,"o":"m 322 -18 q 155 10 238 -18 q 68 60 72 39 l 110 221 q 317 149 192 149 q 451 188 397 149 q 504 314 504 228 q 454 422 504 383 q 267 461 404 461 l 118 461 l 179 972 l 625 972 l 607 800 l 313 800 l 289 610 q 584 538 492 607 q 676 321 676 469 q 572 71 676 160 q 322 -18 468 -18 z "},"6":{"ha":781,"x_min":81,"x_max":722,"o":"m 383 -19 q 163 70 246 -19 q 81 351 81 160 q 127 600 81 479 q 240 799 174 721 q 376 925 306 878 q 497 972 446 972 l 614 903 q 493 847 571 903 q 347 700 415 790 q 268 531 278 610 q 429 585 311 585 q 640 512 558 585 q 722 304 722 439 q 628 76 722 171 q 383 -19 535 -19 m 418 440 q 299 400 344 440 q 253 282 253 360 q 299 177 253 215 q 401 139 346 139 q 515 188 471 139 q 558 307 558 238 q 522 399 558 358 q 418 440 486 440 z "},"7":{"ha":708,"x_min":60,"x_max":699,"o":"m 699 972 l 293 0 l 107 0 l 440 800 l 60 800 l 60 972 l 699 972 z "},"8":{"ha":836,"x_min":78,"x_max":758,"o":"m 404 -19 q 161 61 244 -19 q 78 257 78 142 q 228 524 78 414 q 132 746 132 600 q 201 922 132 853 q 424 992 269 992 q 638 928 571 992 q 706 767 706 865 q 586 536 706 636 q 711 433 664 500 q 758 283 758 367 q 667 73 758 165 q 404 -19 576 -19 m 417 853 q 318 819 349 853 q 288 729 288 785 q 410 590 288 624 q 542 736 542 626 q 512 820 542 788 q 417 853 482 853 m 422 461 q 299 400 351 450 q 247 271 247 350 q 291 161 247 200 q 411 122 335 122 q 538 165 492 122 q 583 278 583 207 q 538 399 583 351 q 422 461 492 446 z "},"9":{"ha":783,"x_min":58,"x_max":701,"o":"m 397 992 q 618 901 535 992 q 701 622 701 811 q 660 374 701 493 q 558 176 619 256 q 423 48 496 96 q 283 0 350 0 l 171 69 q 297 118 218 69 q 445 257 375 167 q 521 440 515 347 q 440 401 497 414 q 351 388 382 388 q 139 459 219 388 q 58 664 58 531 q 152 897 58 801 q 397 992 246 992 m 368 532 q 487 572 440 532 q 533 689 533 613 q 490 799 533 765 q 388 833 446 833 q 274 784 315 833 q 232 671 232 735 q 266 573 232 614 q 368 532 300 532 z "}," ":{"ha":313,"x_min":0,"x_max":0,"o":""},"!":{"ha":347,"x_min":88,"x_max":260,"o":"m 260 1042 l 232 278 l 115 278 l 88 1042 l 260 1042 m 260 0 l 88 0 l 88 172 l 260 172 l 260 0 z "},"\"":{"ha":550,"x_min":50,"x_max":500,"o":"m 500 1042 l 472 625 l 356 625 l 328 1042 l 500 1042 m 222 1042 l 194 625 l 78 625 l 50 1042 l 222 1042 z "},"#":{"ha":986,"x_min":43,"x_max":942,"o":"m 942 711 l 894 575 l 736 575 l 685 438 l 858 438 l 792 293 l 629 293 l 513 -15 l 379 -15 l 496 293 l 340 293 l 221 -15 l 90 -15 l 207 293 l 43 293 l 107 438 l 263 438 l 314 575 l 146 575 l 190 711 l 365 711 l 468 972 l 599 972 l 499 711 l 657 711 l 757 972 l 888 972 l 788 711 l 942 711 m 606 575 l 447 575 l 393 438 l 551 438 l 606 575 z "},"$":{"ha":728,"x_min":56,"x_max":679,"o":"m 414 111 l 436 -44 l 288 -44 l 310 110 q 67 165 146 118 l 90 342 q 351 254 183 254 q 493 328 493 254 q 448 394 493 367 q 339 440 403 421 q 210 481 275 458 q 101 547 146 503 q 56 657 56 592 q 117 802 56 738 q 310 879 178 867 l 288 1039 l 436 1039 l 414 879 q 541 859 479 875 q 635 825 603 843 l 619 668 q 381 740 481 740 q 225 674 225 740 q 272 614 225 638 q 385 574 318 590 q 519 533 453 557 q 633 458 586 510 q 679 329 679 407 q 669 263 679 294 q 632 199 658 232 q 549 142 606 165 q 414 111 493 118 z "},"%":{"ha":1169,"x_min":47,"x_max":1124,"o":"m 908 -12 q 757 56 814 -12 q 700 239 700 125 q 761 428 700 357 q 915 500 822 500 q 1065 432 1007 500 q 1124 250 1124 364 q 1065 59 1124 131 q 908 -12 1006 -12 m 935 972 l 349 -17 l 204 -17 l 790 972 l 935 972 m 256 465 q 104 534 161 465 q 47 717 47 603 q 108 906 47 835 q 263 978 169 978 q 413 910 354 978 q 471 728 471 842 q 412 537 471 608 q 256 465 353 465 m 914 400 q 841 360 871 400 q 811 239 811 319 q 838 126 811 163 q 910 90 865 90 q 1014 250 1014 90 q 985 363 1014 325 q 914 400 956 400 m 261 878 q 188 838 218 878 q 158 717 158 797 q 185 604 158 640 q 257 568 213 568 q 361 728 361 568 q 332 840 361 803 q 261 878 303 878 z "},"&":{"ha":871,"x_min":44,"x_max":867,"o":"m 867 0 l 667 0 l 624 47 q 368 -33 522 -33 q 126 44 208 -33 q 44 233 44 121 q 90 386 44 321 q 214 510 135 451 q 110 747 110 640 q 193 914 110 851 q 392 976 276 976 q 554 922 496 976 q 613 778 613 868 q 598 697 613 735 q 549 625 583 660 q 490 571 514 590 q 415 515 465 551 l 610 293 q 624 489 621 349 l 789 489 q 721 167 789 296 l 867 0 m 383 839 q 308 813 338 839 q 279 740 279 788 q 343 600 279 681 q 461 758 461 683 q 383 839 461 839 m 536 146 l 296 417 q 224 249 224 340 q 262 142 224 185 q 392 99 300 99 q 536 146 482 99 z "},"'":{"ha":272,"x_min":50,"x_max":222,"o":"m 222 1042 l 194 625 l 78 625 l 50 1042 l 222 1042 z "},"(":{"ha":385,"x_min":57,"x_max":354,"o":"m 354 -189 l 197 -189 q 92 76 128 -67 q 57 426 57 218 q 92 777 57 635 q 197 1042 128 919 l 354 1042 q 197 426 197 765 q 354 -189 197 88 z "},")":{"ha":385,"x_min":31,"x_max":328,"o":"m 188 -189 l 31 -189 q 188 426 188 88 q 31 1042 188 765 l 188 1042 q 292 777 257 919 q 328 426 328 635 q 292 76 328 218 q 188 -189 257 -67 z "},"*":{"ha":619,"x_min":43,"x_max":576,"o":"m 429 572 l 313 763 l 193 568 l 100 658 l 268 785 l 43 857 l 108 971 l 293 822 l 244 1040 l 375 1040 l 325 822 l 511 971 l 576 857 l 356 788 l 522 663 l 429 572 z "},"+":{"ha":636,"x_min":61,"x_max":575,"o":"m 575 319 l 383 319 l 383 142 l 253 142 l 253 319 l 61 319 l 61 450 l 253 450 l 253 628 l 383 628 l 383 450 l 575 450 l 575 319 z "},",":{"ha":322,"x_min":75,"x_max":247,"o":"m 247 0 l 111 -153 l 75 -133 l 121 -14 l 75 0 l 75 181 l 247 181 l 247 0 z "},"-":{"ha":581,"x_min":75,"x_max":506,"o":"m 506 319 l 75 319 l 75 450 l 506 450 l 506 319 z "},".":{"ha":322,"x_min":75,"x_max":247,"o":"m 247 0 l 75 0 l 75 181 l 247 181 l 247 0 z "},"/":{"ha":765,"x_min":26,"x_max":719,"o":"m 719 972 l 213 -118 l 26 -118 l 533 972 l 719 972 z "},":":{"ha":322,"x_min":75,"x_max":247,"o":"m 247 431 l 75 431 l 75 611 l 247 611 l 247 431 m 247 0 l 75 0 l 75 181 l 247 181 l 247 0 z "},";":{"ha":343,"x_min":78,"x_max":268,"o":"m 268 431 l 78 431 l 78 611 l 268 611 l 268 431 m 250 0 l 114 -153 l 78 -133 l 124 -14 l 78 0 l 78 181 l 250 181 l 250 0 z "},"<":{"ha":619,"x_min":40,"x_max":539,"o":"m 539 108 l 335 108 l 40 394 l 335 681 l 539 681 l 244 394 l 539 108 z "},"=":{"ha":686,"x_min":86,"x_max":600,"o":"m 600 431 l 86 431 l 86 561 l 600 561 l 600 431 m 600 208 l 86 208 l 86 339 l 600 339 l 600 208 z "},">":{"ha":619,"x_min":81,"x_max":579,"o":"m 579 394 l 285 108 l 81 108 l 375 394 l 81 681 l 285 681 l 579 394 z "},"?":{"ha":614,"x_min":40,"x_max":554,"o":"m 339 278 l 222 278 q 218 351 218 340 q 245 470 218 410 q 305 573 272 531 q 365 671 338 615 q 392 776 392 726 q 353 873 392 840 q 251 906 314 906 q 79 815 143 906 l 40 943 q 263 1042 107 1042 q 477 958 400 1042 q 554 778 554 874 q 532 683 554 732 q 478 592 508 635 l 415 504 q 361 406 383 460 q 339 296 339 351 l 339 278 m 367 0 l 194 0 l 194 172 l 367 172 l 367 0 z "},"@":{"ha":992,"x_min":63,"x_max":932,"o":"m 751 526 q 582 600 681 600 q 341 477 453 600 q 229 210 229 354 q 260 99 229 143 q 361 56 292 56 q 493 100 421 56 q 606 217 565 144 q 603 196 606 214 q 601 174 601 178 q 619 94 601 129 q 678 58 638 58 q 773 85 718 58 q 863 147 828 113 q 673 -47 796 26 q 407 -121 550 -121 q 155 -26 247 -121 q 63 236 63 68 q 217 614 63 460 q 586 768 372 768 q 840 673 749 768 q 932 415 932 578 q 897 221 932 314 q 819 155 871 179 q 726 131 767 131 q 675 204 675 131 q 685 281 675 238 q 717 398 696 325 q 751 526 738 471 m 583 515 q 658 485 647 515 q 555 259 639 371 q 401 147 471 147 q 356 172 371 147 q 340 236 340 197 q 424 431 340 346 q 583 515 507 515 z "},"A":{"ha":868,"x_min":4,"x_max":864,"o":"m 864 0 l 679 0 l 596 235 l 272 235 l 189 0 l 4 0 l 350 972 l 518 972 l 864 0 m 535 407 l 433 692 l 333 407 l 535 407 z "},"B":{"ha":869,"x_min":107,"x_max":829,"o":"m 482 0 l 107 0 l 107 972 l 369 972 q 495 967 443 972 q 597 946 547 961 q 676 903 646 931 q 724 831 706 876 q 742 722 742 786 q 660 519 742 588 q 788 431 746 486 q 829 286 829 376 q 799 147 829 206 q 716 58 768 89 q 606 14 664 28 q 482 0 549 0 m 442 821 l 285 821 l 285 582 l 458 582 q 541 608 506 582 q 576 696 576 633 q 542 794 576 767 q 442 821 508 821 m 469 442 l 285 442 l 285 151 l 460 151 q 598 185 550 151 q 646 296 646 218 q 469 442 646 442 z "},"C":{"ha":846,"x_min":49,"x_max":804,"o":"m 528 -19 q 183 120 317 -19 q 49 486 49 260 q 183 852 49 713 q 528 992 317 992 q 804 935 688 992 l 785 765 q 528 821 644 821 q 317 729 390 821 q 243 486 243 638 q 317 243 243 335 q 528 151 390 151 q 785 207 644 151 l 804 38 q 528 -19 688 -19 z "},"D":{"ha":1000,"x_min":107,"x_max":950,"o":"m 471 0 l 107 0 l 107 972 l 471 972 q 817 842 683 972 q 950 486 950 711 q 817 131 950 261 q 471 0 683 0 m 471 801 l 285 801 l 285 171 l 471 171 q 683 254 610 171 q 756 486 756 338 q 683 718 756 635 q 471 801 610 801 z "},"E":{"ha":789,"x_min":107,"x_max":743,"o":"m 743 0 l 107 0 l 107 972 l 729 972 l 729 800 l 289 800 l 289 593 l 631 593 l 631 421 l 289 421 l 289 172 l 743 172 l 743 0 z "},"F":{"ha":729,"x_min":107,"x_max":706,"o":"m 706 800 l 285 800 l 285 593 l 610 593 l 610 421 l 285 421 l 285 0 l 107 0 l 107 972 l 706 972 l 706 800 z "},"G":{"ha":922,"x_min":49,"x_max":857,"o":"m 524 -19 q 183 120 317 -19 q 49 488 49 260 q 183 853 49 714 q 533 992 318 992 q 690 976 607 992 q 825 935 774 960 l 806 765 q 538 821 669 821 q 317 730 392 821 q 243 490 243 639 q 321 244 243 336 q 546 151 399 151 q 679 167 606 151 l 679 340 l 572 340 l 572 488 l 857 488 l 857 54 q 706 2 804 24 q 524 -19 607 -19 z "},"H":{"ha":1028,"x_min":107,"x_max":921,"o":"m 921 0 l 743 0 l 743 421 l 285 421 l 285 0 l 107 0 l 107 972 l 285 972 l 285 593 l 743 593 l 743 972 l 921 972 l 921 0 z "},"I":{"ha":392,"x_min":107,"x_max":285,"o":"m 285 0 l 107 0 l 107 972 l 285 972 l 285 0 z "},"J":{"ha":392,"x_min":-4,"x_max":285,"o":"m 60 -239 l 10 -239 l -4 -106 l 33 -106 q 90 -79 74 -106 q 107 6 107 -53 l 107 972 l 285 972 l 285 -33 q 226 -187 285 -135 q 60 -239 167 -239 z "},"K":{"ha":863,"x_min":107,"x_max":858,"o":"m 858 0 l 658 0 l 319 514 l 658 972 l 858 972 l 519 514 l 858 0 m 285 0 l 107 0 l 107 972 l 285 972 l 285 0 z "},"L":{"ha":694,"x_min":107,"x_max":685,"o":"m 685 0 l 107 0 l 107 972 l 285 972 l 285 172 l 685 172 l 685 0 z "},"M":{"ha":1157,"x_min":61,"x_max":1096,"o":"m 1096 0 l 911 0 l 828 651 l 579 204 l 329 650 l 246 0 l 61 0 l 196 972 l 342 972 l 579 529 l 815 972 l 961 972 l 1096 0 z "},"N":{"ha":982,"x_min":107,"x_max":875,"o":"m 875 0 l 729 0 l 285 667 l 285 0 l 107 0 l 107 972 l 282 972 l 697 344 l 697 972 l 875 972 l 875 0 z "},"O":{"ha":1056,"x_min":49,"x_max":1007,"o":"m 873 120 q 806 50 873 120 q 528 -19 739 -19 q 183 120 317 -19 q 49 486 49 260 q 183 852 49 713 q 528 992 317 992 q 873 852 739 992 q 1007 486 1007 713 q 873 120 1007 260 m 739 729 q 702 775 739 729 q 528 821 665 821 q 317 729 390 821 q 243 486 243 638 q 317 243 243 335 q 528 151 390 151 q 739 243 665 151 q 813 486 813 335 q 739 729 813 638 z "},"P":{"ha":828,"x_min":107,"x_max":799,"o":"m 458 319 l 285 319 l 285 0 l 107 0 l 107 972 l 382 972 q 562 961 492 972 q 690 918 632 950 q 773 824 747 886 q 799 664 799 763 q 766 494 799 565 q 679 386 733 422 q 571 335 625 350 q 458 319 517 319 m 431 824 l 285 824 l 285 486 l 435 486 q 576 526 533 486 q 618 663 618 565 q 578 786 618 749 q 431 824 539 824 z "},"Q":{"ha":1056,"x_min":49,"x_max":1007,"o":"m 1007 110 l 904 -14 l 808 65 q 528 -19 692 -19 q 183 120 317 -19 q 49 486 49 260 q 183 852 49 713 q 528 992 317 992 q 873 852 739 992 q 1007 486 1007 713 q 921 181 1007 311 l 1007 110 m 739 729 q 702 775 739 729 q 528 821 665 821 q 317 729 390 821 q 243 486 243 638 q 317 243 243 335 q 528 151 390 151 q 667 183 607 151 l 550 282 l 653 406 l 775 303 q 813 486 813 381 q 739 729 813 638 z "},"R":{"ha":869,"x_min":107,"x_max":851,"o":"m 851 0 l 667 0 l 465 361 l 285 361 l 285 0 l 107 0 l 107 972 l 463 972 q 797 692 797 972 q 754 522 797 588 q 632 408 711 457 l 851 0 m 422 824 l 285 824 l 285 528 l 415 528 q 569 567 528 528 q 611 679 611 606 q 571 788 611 753 q 422 824 531 824 z "},"S":{"ha":806,"x_min":53,"x_max":765,"o":"m 389 -19 q 199 1 285 -19 q 67 51 113 22 l 88 254 q 212 181 132 211 q 393 151 292 151 q 567 257 567 151 q 553 310 567 286 q 523 349 539 333 q 469 381 507 364 q 411 406 432 399 q 340 431 390 414 q 281 451 297 444 l 225 475 q 168 502 186 490 q 124 535 150 514 q 85 579 97 557 q 63 633 72 601 q 53 700 53 664 q 139 903 53 814 q 404 992 225 992 q 584 968 497 992 q 714 917 671 944 l 696 735 q 411 822 536 822 q 287 799 340 822 q 233 719 233 775 q 282 638 233 667 q 429 579 331 610 q 508 554 481 564 q 582 525 535 544 q 656 484 629 506 q 710 431 682 463 q 752 358 739 400 q 765 264 765 315 q 758 191 765 225 q 727 117 751 157 q 663 48 703 76 q 553 0 624 19 q 389 -19 483 -19 z "},"T":{"ha":769,"x_min":21,"x_max":749,"o":"m 749 800 l 474 800 l 474 0 l 296 0 l 296 800 l 21 800 l 21 972 l 749 972 l 749 800 z "},"U":{"ha":997,"x_min":96,"x_max":901,"o":"m 800 97 q 749 39 800 97 q 499 -19 699 -19 q 197 97 299 -19 q 96 417 96 213 l 96 972 l 274 972 l 274 476 q 322 237 274 322 q 499 151 369 151 q 676 237 628 151 q 724 476 724 322 l 724 972 l 901 972 l 901 417 q 800 97 901 213 z "},"V":{"ha":913,"x_min":0,"x_max":908,"o":"m 908 972 l 567 0 l 350 0 l 0 972 l 185 972 l 457 235 l 725 972 l 908 972 z "},"W":{"ha":1338,"x_min":14,"x_max":1329,"o":"m 1329 972 l 1044 0 l 888 0 l 671 649 l 456 0 l 288 0 l 14 972 l 199 972 l 393 282 l 610 972 l 733 972 l 958 300 l 1144 972 l 1329 972 z "},"X":{"ha":871,"x_min":-1,"x_max":874,"o":"m 874 0 l 668 0 l 432 357 l 203 0 l -1 0 l 342 485 l 14 972 l 219 972 l 444 631 l 650 972 l 854 972 l 535 504 l 874 0 z "},"Y":{"ha":831,"x_min":-10,"x_max":840,"o":"m 840 972 l 504 431 l 504 0 l 326 0 l 326 431 l -10 972 l 179 972 l 415 589 l 651 972 l 840 972 z "},"Z":{"ha":761,"x_min":11,"x_max":751,"o":"m 751 972 l 304 172 l 689 172 l 689 0 l 11 0 l 458 800 l 74 800 l 74 972 l 751 972 z "},"[":{"ha":465,"x_min":93,"x_max":450,"o":"m 450 -189 l 93 -189 l 93 1042 l 450 1042 l 450 890 l 250 890 l 250 -37 l 450 -37 l 450 -189 z "},"\\":{"ha":765,"x_min":46,"x_max":739,"o":"m 739 -118 l 553 -118 l 46 972 l 232 972 l 739 -118 z "},"]":{"ha":472,"x_min":22,"x_max":379,"o":"m 379 -189 l 22 -189 l 22 -17 l 222 -17 l 222 869 l 22 869 l 22 1042 l 379 1042 l 379 -189 z "},"^":{"ha":710,"x_min":68,"x_max":640,"o":"m 640 556 l 354 850 l 68 556 l 68 760 l 354 1054 l 640 760 l 640 556 z "},"_":{"ha":775,"x_min":-1,"x_max":776,"o":"m 776 -181 l -1 -181 l -1 -50 l 776 -50 l 776 -181 z "},"`":{"ha":421,"x_min":81,"x_max":340,"o":"m 340 813 l 81 897 l 81 1042 l 340 915 l 340 813 z "},"a":{"ha":692,"x_min":29,"x_max":676,"o":"m 676 128 l 661 -14 l 599 -14 q 443 67 486 -14 q 231 -14 371 -14 q 87 42 144 -14 q 29 194 29 99 q 70 315 29 264 q 176 391 111 365 q 302 429 242 417 q 419 443 363 442 q 388 531 417 504 q 294 557 360 557 q 104 504 211 557 l 89 644 q 342 706 215 706 q 593 426 593 706 l 593 239 q 604 146 593 164 q 654 128 615 128 l 676 128 m 421 168 l 421 326 q 274 290 338 322 q 210 201 210 258 q 303 118 210 118 q 421 168 369 118 z "},"b":{"ha":793,"x_min":79,"x_max":754,"o":"m 414 -14 q 243 39 319 -14 l 240 0 l 79 0 l 79 1042 l 251 1042 l 251 660 q 414 706 321 706 q 664 602 574 706 q 754 346 754 499 q 664 90 754 193 q 414 -14 574 -14 m 403 564 q 283 506 322 564 q 243 346 243 447 q 283 186 243 244 q 403 128 322 128 q 531 188 485 128 q 578 346 578 247 q 531 504 578 444 q 403 564 485 564 z "},"c":{"ha":622,"x_min":39,"x_max":585,"o":"m 376 -14 q 128 89 217 -14 q 39 346 39 192 q 128 603 39 500 q 376 706 217 706 q 585 654 503 706 l 569 507 q 390 564 483 564 q 262 504 308 564 q 215 346 215 444 q 262 188 215 247 q 390 128 308 128 q 569 185 483 128 l 585 38 q 376 -14 503 -14 z "},"d":{"ha":793,"x_min":39,"x_max":714,"o":"m 714 0 l 551 0 l 549 39 q 379 -14 472 -14 q 129 90 219 -14 q 39 346 39 193 q 129 602 39 499 q 379 706 219 706 q 542 660 472 706 l 542 1042 l 714 1042 l 714 0 m 390 564 q 262 504 308 564 q 215 346 215 444 q 262 188 215 247 q 390 128 308 128 q 510 186 471 128 q 550 346 550 244 q 510 506 550 447 q 390 564 471 564 z "},"e":{"ha":715,"x_min":39,"x_max":678,"o":"m 667 310 l 218 310 q 291 174 232 219 q 425 128 350 128 q 533 144 472 128 q 639 185 594 161 l 647 39 q 415 -14 547 -14 q 137 89 235 -14 q 39 346 39 192 q 128 601 39 497 q 372 706 218 706 q 592 623 506 706 q 678 404 678 540 q 667 310 678 363 m 472 522 q 457 543 472 522 q 378 564 442 564 q 275 526 314 564 q 222 426 236 489 l 503 426 q 472 522 503 481 z "},"f":{"ha":472,"x_min":24,"x_max":447,"o":"m 447 553 l 294 553 l 294 0 l 122 0 l 122 553 l 24 553 l 39 694 l 122 694 l 122 860 q 166 988 122 933 q 289 1042 210 1042 q 446 1033 354 1042 l 431 890 q 357 897 400 897 q 307 875 319 897 q 294 789 294 853 l 294 694 l 447 694 l 447 553 z "},"g":{"ha":696,"x_min":33,"x_max":693,"o":"m 361 -347 q 117 -287 200 -347 q 33 -142 33 -226 q 147 14 33 -46 q 85 114 85 53 q 154 208 85 175 q 47 432 47 285 q 122 627 47 549 q 329 706 197 706 q 488 664 422 706 q 636 694 543 694 l 681 694 l 669 586 l 607 586 q 568 585 583 586 q 610 432 610 519 q 535 237 610 315 q 329 158 461 158 q 256 165 294 158 q 240 143 240 158 q 278 108 240 119 q 414 86 317 97 q 482 76 453 81 q 554 56 511 71 q 624 19 597 40 q 672 -38 651 -1 q 693 -124 693 -75 q 606 -287 693 -226 q 361 -347 519 -347 m 329 579 q 234 540 267 579 q 201 432 201 500 q 234 324 201 364 q 329 285 267 285 q 423 324 390 285 q 456 432 456 364 q 423 540 456 500 q 329 579 390 579 m 356 -42 q 272 -29 318 -37 q 176 -125 176 -61 q 223 -198 176 -171 q 353 -225 269 -225 q 488 -200 435 -225 q 540 -131 540 -175 q 525 -90 540 -107 q 478 -65 510 -74 q 423 -51 447 -56 q 356 -42 399 -46 z "},"h":{"ha":765,"x_min":79,"x_max":692,"o":"m 692 0 l 519 0 l 519 374 q 487 517 519 471 q 382 564 454 564 q 251 504 303 564 l 251 0 l 79 0 l 79 1042 l 251 1042 l 251 658 q 396 706 324 706 q 692 374 692 706 l 692 0 z "},"i":{"ha":333,"x_min":81,"x_max":253,"o":"m 253 800 l 81 800 l 81 972 l 253 972 l 253 800 m 253 0 l 81 0 l 81 694 l 253 694 l 253 0 z "},"j":{"ha":333,"x_min":-3,"x_max":253,"o":"m 75 -336 l 13 -336 l -3 -194 q 67 -178 54 -194 q 81 -83 81 -162 l 81 694 l 253 694 l 253 -154 q 208 -285 253 -235 q 75 -336 164 -336 m 253 800 l 81 800 l 81 972 l 253 972 l 253 800 z "},"k":{"ha":674,"x_min":79,"x_max":667,"o":"m 251 0 l 79 0 l 79 1042 l 251 1042 l 251 410 l 472 694 l 667 694 l 413 361 l 667 0 l 472 0 l 251 308 l 251 0 z "},"l":{"ha":365,"x_min":81,"x_max":336,"o":"m 336 128 l 321 -14 l 258 -14 q 125 37 169 -14 q 81 168 81 88 l 81 1042 l 253 1042 l 253 239 q 267 144 253 160 q 336 128 281 128 z "},"m":{"ha":1203,"x_min":81,"x_max":1129,"o":"m 1129 0 l 957 0 l 957 374 q 928 518 957 472 q 828 564 899 564 q 720 528 750 564 q 690 429 690 492 l 690 0 l 519 0 l 519 374 q 488 524 519 483 q 381 564 456 564 q 253 507 301 564 l 253 0 l 81 0 l 81 694 l 222 694 l 232 640 q 410 706 311 706 q 531 678 474 706 q 622 600 588 651 q 705 672 643 639 q 853 706 767 706 q 1059 615 989 706 q 1129 374 1129 525 l 1129 0 z "},"n":{"ha":767,"x_min":81,"x_max":693,"o":"m 693 0 l 521 0 l 521 374 q 488 517 521 471 q 383 564 456 564 q 253 504 304 564 l 253 0 l 81 0 l 81 694 l 242 694 l 244 653 q 397 706 317 706 q 693 374 693 706 l 693 0 z "},"o":{"ha":781,"x_min":39,"x_max":742,"o":"m 647 90 q 599 38 647 90 q 390 -14 551 -14 q 134 90 229 -14 q 39 346 39 194 q 134 601 39 497 q 390 706 229 706 q 647 601 551 706 q 742 346 742 497 q 647 90 742 194 m 519 504 q 495 534 519 504 q 390 564 472 564 q 262 504 308 564 q 215 346 215 444 q 262 188 215 247 q 390 128 308 128 q 519 188 472 128 q 565 346 565 247 q 519 504 565 444 z "},"p":{"ha":794,"x_min":81,"x_max":756,"o":"m 415 -14 q 253 33 324 -14 l 253 -336 l 81 -336 l 81 694 l 231 694 l 244 654 q 415 706 321 706 q 665 602 575 706 q 756 346 756 499 q 665 90 756 193 q 415 -14 575 -14 m 404 564 q 284 506 324 564 q 244 346 244 447 q 284 186 244 244 q 404 128 324 128 q 533 188 486 128 q 579 346 579 247 q 533 504 579 444 q 404 564 486 564 z "},"q":{"ha":794,"x_min":39,"x_max":714,"o":"m 379 -14 q 129 90 219 -14 q 39 346 39 193 q 129 602 39 499 q 379 706 219 706 q 550 654 474 706 l 564 694 l 714 694 l 714 -336 l 542 -336 l 542 33 q 379 -14 471 -14 m 390 564 q 262 504 308 564 q 215 346 215 444 q 262 188 215 247 q 390 128 308 128 q 510 186 471 128 q 550 346 550 244 q 510 506 550 447 q 390 564 471 564 z "},"r":{"ha":475,"x_min":81,"x_max":476,"o":"m 476 706 l 443 543 l 379 543 q 303 524 338 543 q 253 474 268 504 l 253 0 l 81 0 l 81 694 l 242 694 l 246 621 q 431 706 328 706 l 476 706 z "},"s":{"ha":588,"x_min":43,"x_max":550,"o":"m 278 -14 q 43 38 121 -14 l 58 185 q 155 137 93 158 q 272 115 217 115 q 353 138 329 115 q 378 192 378 160 q 347 251 378 231 q 250 290 315 271 q 190 309 211 301 q 138 333 169 317 q 91 367 107 349 q 63 416 75 386 q 50 485 50 446 q 110 639 50 572 q 304 706 171 706 q 430 690 368 706 q 522 654 492 675 l 507 507 q 424 559 478 536 q 317 582 369 582 q 234 563 267 582 q 201 506 201 544 q 203 485 201 494 q 211 469 206 476 q 222 455 217 461 q 239 443 228 449 q 258 434 250 438 q 281 425 265 431 l 304 418 q 331 410 313 415 q 360 403 350 406 q 499 332 447 378 q 550 190 550 286 q 278 -14 550 -14 z "},"t":{"ha":478,"x_min":22,"x_max":446,"o":"m 446 128 l 431 -14 l 307 -14 q 168 40 215 -14 q 121 168 121 93 l 121 553 l 22 553 l 38 694 l 121 694 l 121 847 l 293 865 l 293 694 l 446 694 l 446 553 l 293 553 l 293 239 q 309 144 293 161 q 399 128 325 128 l 446 128 z "},"u":{"ha":767,"x_min":74,"x_max":686,"o":"m 686 0 l 525 0 l 522 42 q 368 -14 449 -14 q 74 321 74 -14 l 74 694 l 246 694 l 246 321 q 278 177 246 224 q 383 131 311 131 q 514 189 464 131 l 514 694 l 686 694 l 686 0 z "},"v":{"ha":689,"x_min":4,"x_max":685,"o":"m 685 694 l 418 0 l 271 0 l 4 694 l 174 694 l 344 214 l 515 694 l 685 694 z "},"w":{"ha":1008,"x_min":14,"x_max":994,"o":"m 994 694 l 792 0 l 647 0 l 504 453 l 361 0 l 217 0 l 14 694 l 182 694 l 301 210 l 432 681 l 576 681 l 706 210 l 826 694 l 994 694 z "},"x":{"ha":682,"x_min":14,"x_max":668,"o":"m 668 0 l 463 0 l 336 196 l 219 0 l 14 0 l 238 347 l 14 694 l 219 694 l 346 499 l 463 694 l 668 694 l 443 347 l 668 0 z "},"y":{"ha":746,"x_min":1,"x_max":743,"o":"m 743 694 l 308 -336 l 136 -336 l 290 46 l 1 694 l 193 694 l 371 247 l 551 694 l 743 694 z "},"z":{"ha":656,"x_min":29,"x_max":628,"o":"m 628 694 l 321 153 l 613 153 l 613 0 l 29 0 l 336 542 l 43 542 l 43 694 l 628 694 z "},"{":{"ha":443,"x_min":19,"x_max":426,"o":"m 124 40 q 128 132 124 65 q 133 231 133 199 q 109 349 133 306 q 19 426 85 393 q 108 502 83 460 q 133 624 133 544 q 128 722 133 656 q 124 813 124 788 q 192 985 124 928 q 426 1042 261 1042 l 426 890 q 356 889 382 890 q 310 877 331 888 q 281 858 290 867 q 267 821 272 849 q 260 770 261 793 q 260 694 258 747 q 262 638 260 676 q 264 581 264 600 q 193 426 264 471 q 264 283 264 383 q 262 224 264 265 q 260 160 260 183 q 260 84 260 107 q 267 33 261 61 q 281 -5 272 4 q 310 -24 290 -14 q 356 -36 331 -35 q 426 -37 382 -37 l 426 -189 q 194 -133 264 -189 q 124 40 124 -78 z "},"|":{"ha":325,"x_min":93,"x_max":232,"o":"m 232 -292 l 93 -292 l 93 1042 l 232 1042 l 232 -292 z "},"}":{"ha":443,"x_min":17,"x_max":424,"o":"m 319 40 q 249 -133 319 -78 q 17 -189 179 -189 l 17 -37 q 87 -36 61 -37 q 133 -24 113 -35 q 162 -5 153 -14 q 176 33 171 4 q 183 84 182 61 q 183 160 183 107 q 181 224 183 183 q 179 283 179 265 q 250 426 179 383 q 179 581 179 471 q 181 638 179 600 q 183 694 183 676 q 183 770 183 747 q 176 821 182 793 q 162 858 171 849 q 133 877 153 867 q 87 889 113 888 q 17 890 61 890 l 17 1042 q 251 985 182 1042 q 319 813 319 928 q 315 722 319 788 q 310 624 310 656 q 335 502 310 544 q 424 426 360 460 q 334 349 358 393 q 310 231 310 306 q 315 132 310 199 q 319 40 319 65 z "},"~":{"ha":647,"x_min":64,"x_max":586,"o":"m 422 244 q 326 274 382 244 q 246 303 269 303 q 201 283 218 303 q 179 238 185 263 l 64 265 q 123 369 71 331 q 238 407 175 407 q 331 378 283 407 q 401 349 379 349 q 454 369 432 349 q 481 414 476 390 l 586 386 q 533 287 576 329 q 422 244 489 244 z "}," ":{"ha":313,"x_min":0,"x_max":0,"o":""},"¡":{"ha":319,"x_min":74,"x_max":246,"o":"m 74 -347 l 101 417 l 218 417 l 246 -347 l 74 -347 m 74 694 l 246 694 l 246 522 l 74 522 l 74 694 z "},"¢":{"ha":661,"x_min":47,"x_max":593,"o":"m 422 124 l 443 -44 l 310 -44 l 332 126 q 122 244 196 144 q 47 483 47 343 q 123 724 47 624 q 335 840 199 824 l 310 1039 l 443 1039 l 419 842 q 593 792 521 838 l 578 644 q 399 701 492 701 q 270 642 317 701 q 224 483 224 582 q 270 325 224 385 q 399 265 317 265 q 578 322 492 265 l 593 175 q 422 124 524 131 z "},"£":{"ha":729,"x_min":43,"x_max":654,"o":"m 654 839 l 588 754 q 572 798 579 782 q 553 832 565 814 q 522 858 540 850 q 478 867 503 867 q 422 852 443 867 q 391 806 400 838 q 379 745 382 775 q 376 667 376 715 l 376 550 l 631 550 l 603 433 l 371 433 q 304 144 360 272 l 642 144 l 642 0 l 43 0 q 207 433 181 164 l 83 433 l 111 550 l 214 550 l 214 694 q 222 797 214 753 q 252 886 229 840 q 324 956 275 932 q 449 981 374 981 q 654 839 619 981 z "},"¤":{"ha":872,"x_min":76,"x_max":797,"o":"m 797 96 l 714 26 l 610 164 q 436 124 536 124 q 263 164 336 124 l 160 26 l 76 96 l 176 231 q 85 483 85 331 q 178 736 85 636 l 76 871 l 160 940 l 263 803 q 436 843 340 843 q 610 801 533 843 l 714 940 l 797 871 l 696 735 q 788 483 788 635 q 694 231 788 332 l 797 96 m 565 642 q 541 672 565 642 q 436 701 518 701 q 308 642 354 701 q 261 483 261 582 q 308 325 261 385 q 436 265 354 265 q 565 325 518 265 q 611 483 611 385 q 565 642 611 582 z "},"¥":{"ha":981,"x_min":38,"x_max":943,"o":"m 943 972 l 604 468 l 807 468 l 771 372 l 579 372 l 579 288 l 807 288 l 771 192 l 579 192 l 579 0 l 401 0 l 401 192 l 172 192 l 206 288 l 401 288 l 401 372 l 172 372 l 206 468 l 376 468 l 38 972 l 222 972 l 490 589 l 758 972 l 943 972 z "},"¦":{"ha":311,"x_min":94,"x_max":217,"o":"m 217 394 l 94 394 l 94 1042 l 217 1042 l 217 394 m 217 -292 l 94 -292 l 94 264 l 217 264 l 217 -292 z "},"§":{"ha":639,"x_min":54,"x_max":585,"o":"m 465 258 q 525 114 525 208 q 469 -49 525 19 q 288 -118 414 -118 q 172 -101 232 -118 q 89 -61 113 -83 l 101 85 q 281 15 197 15 q 406 96 406 15 q 369 165 406 138 q 282 212 333 193 q 178 256 231 231 q 90 332 126 281 q 54 461 54 383 q 172 665 54 615 q 113 810 113 713 q 169 973 113 904 q 351 1042 225 1042 q 467 1024 407 1042 q 550 985 526 1007 l 538 839 q 358 908 442 908 q 233 828 233 908 q 269 758 233 786 q 357 712 306 731 q 460 668 408 693 q 549 592 513 643 q 585 463 585 540 q 465 258 585 307 m 274 567 q 217 544 247 567 q 186 492 186 521 q 368 343 186 389 q 424 373 393 343 q 456 432 456 403 q 442 479 456 458 q 413 513 429 500 q 367 538 397 525 q 322 554 339 550 l 274 567 z "},"¨":{"ha":586,"x_min":121,"x_max":465,"o":"m 465 825 l 331 825 l 331 972 l 465 972 l 465 825 m 256 825 l 121 825 l 121 972 l 256 972 l 256 825 z "},"©":{"ha":974,"x_min":56,"x_max":918,"o":"m 797 177 q 737 114 797 177 q 488 51 676 51 q 177 178 299 51 q 56 507 56 304 q 177 837 56 711 q 488 963 299 963 q 797 837 676 963 q 918 507 918 711 q 797 177 918 303 m 488 865 q 246 767 329 865 q 163 507 163 668 q 246 247 163 346 q 488 147 329 147 q 728 247 644 147 q 811 507 811 346 q 728 767 811 668 q 488 865 644 865 m 499 264 q 335 331 399 264 q 271 504 271 397 q 334 679 271 613 q 499 746 397 746 q 640 714 571 746 l 626 596 q 499 628 550 628 q 424 595 450 628 q 397 504 397 563 q 424 414 397 447 q 499 381 450 381 q 626 415 554 381 l 640 299 q 499 264 579 264 z "},"ª":{"ha":501,"x_min":42,"x_max":451,"o":"m 451 721 l 446 603 q 286 631 319 603 q 156 603 257 603 q 76 635 110 603 q 42 731 42 668 q 69 799 42 769 q 137 844 96 829 q 209 865 178 858 q 263 874 240 872 q 256 880 261 874 q 240 892 251 886 q 207 899 228 899 q 137 889 179 899 q 83 878 94 879 l 76 990 q 247 1017 164 1017 q 359 985 311 1017 q 407 903 407 954 l 407 754 q 429 721 407 721 l 451 721 m 264 696 l 264 782 q 194 733 194 767 q 209 704 194 715 q 244 693 224 693 q 264 696 250 693 z "},"«":{"ha":843,"x_min":15,"x_max":792,"o":"m 792 108 l 588 108 l 376 394 l 588 681 l 792 681 l 581 394 l 792 108 m 431 108 l 226 108 l 15 394 l 226 681 l 431 681 l 219 394 l 431 108 z "},"¬":{"ha":817,"x_min":83,"x_max":722,"o":"m 722 210 l 592 210 l 592 433 l 83 433 l 83 564 l 722 564 l 722 210 z "},"­":{"ha":581,"x_min":75,"x_max":506,"o":"m 506 319 l 75 319 l 75 450 l 506 450 l 506 319 z "},"®":{"ha":974,"x_min":56,"x_max":918,"o":"m 797 177 q 737 114 797 177 q 488 51 676 51 q 177 178 299 51 q 56 507 56 304 q 177 837 56 711 q 488 963 299 963 q 797 837 676 963 q 918 507 918 711 q 797 177 918 303 m 727 766 q 686 815 727 766 q 488 864 644 864 q 247 766 331 864 q 164 507 164 668 q 247 248 164 347 q 488 149 331 149 q 727 248 644 149 q 810 507 810 347 q 727 766 810 668 m 692 282 l 563 282 l 476 438 l 435 438 l 435 282 l 313 282 l 313 747 l 489 747 q 654 594 654 747 q 635 523 654 556 q 589 474 615 490 l 692 282 m 471 643 l 435 643 l 435 550 l 468 550 q 517 562 504 550 q 529 597 529 574 q 518 632 529 621 q 471 643 507 643 z "},"°":{"ha":451,"x_min":42,"x_max":410,"o":"m 225 669 q 92 724 142 669 q 42 858 42 778 q 92 994 42 939 q 225 1049 142 1049 q 360 994 310 1049 q 410 858 410 939 q 360 724 410 778 q 225 669 310 669 m 225 978 q 160 945 183 978 q 136 858 136 913 q 160 772 136 804 q 225 740 183 740 q 291 772 268 740 q 314 858 314 804 q 291 945 314 913 q 225 978 268 978 z "},"±":{"ha":676,"x_min":81,"x_max":594,"o":"m 594 431 l 403 431 l 403 253 l 272 253 l 272 431 l 81 431 l 81 561 l 272 561 l 272 739 l 403 739 l 403 561 l 594 561 l 594 431 m 594 42 l 81 42 l 81 172 l 594 172 l 594 42 z "},"²":{"ha":429,"x_min":24,"x_max":383,"o":"m 383 444 l 24 444 q 240 819 240 742 q 190 879 240 879 q 142 867 165 879 q 102 836 118 854 q 77 805 86 818 q 63 782 68 792 l 46 903 q 214 981 89 981 q 330 939 294 981 q 365 843 365 897 q 253 582 365 751 l 383 582 l 383 444 z "},"³":{"ha":424,"x_min":24,"x_max":382,"o":"m 172 433 q 80 448 128 433 q 24 475 32 463 l 57 600 q 163 569 100 569 q 256 600 256 569 q 194 679 256 679 l 103 679 l 113 779 l 160 779 q 203 788 186 779 q 226 806 221 797 q 231 822 231 815 q 143 874 231 874 q 78 856 97 874 l 60 946 q 113 971 76 961 q 182 981 149 981 q 273 966 235 981 q 328 927 311 951 q 353 880 346 903 q 361 833 361 857 q 355 785 361 808 q 343 749 349 761 q 333 736 338 738 q 351 707 338 726 q 374 665 365 688 q 382 611 382 643 q 320 481 382 528 q 172 433 258 433 z "},"´":{"ha":421,"x_min":81,"x_max":340,"o":"m 340 897 l 81 813 l 81 915 l 340 1042 l 340 897 z "},"µ":{"ha":846,"x_min":96,"x_max":792,"o":"m 792 128 l 776 -14 l 714 -14 q 564 58 608 -14 q 485 9 533 29 q 392 -11 438 -11 q 268 8 322 -11 l 268 -336 l 96 -336 l 96 694 l 268 694 l 268 321 q 301 177 268 224 q 406 131 333 131 q 536 189 486 131 l 536 694 l 708 694 l 708 239 q 719 146 708 164 q 769 128 731 128 l 792 128 z "},"¶":{"ha":868,"x_min":46,"x_max":806,"o":"m 806 824 l 710 824 l 710 0 l 588 0 l 588 824 l 501 824 l 501 0 l 406 0 l 406 318 q 141 424 236 328 q 46 647 46 521 q 151 876 46 779 q 444 972 256 972 l 806 972 l 806 824 z "},"·":{"ha":322,"x_min":75,"x_max":247,"o":"m 247 296 l 75 296 l 75 476 l 247 476 l 247 296 z "},"¸":{"ha":421,"x_min":179,"x_max":421,"o":"m 421 -72 l 282 -257 l 179 -269 l 276 -85 l 421 -72 z "},"¹":{"ha":307,"x_min":39,"x_max":226,"o":"m 226 444 l 93 444 l 93 796 l 39 785 l 39 888 q 90 914 65 888 q 121 969 115 940 l 226 969 l 226 444 z "},"º":{"ha":524,"x_min":39,"x_max":483,"o":"m 423 664 q 393 633 423 664 q 261 603 363 603 q 99 664 160 603 q 39 810 39 725 q 99 956 39 894 q 261 1017 160 1017 q 423 956 363 1017 q 483 810 483 894 q 423 664 483 725 m 317 880 q 306 895 317 880 q 261 910 296 910 q 206 880 226 910 q 185 810 185 850 q 206 740 185 769 q 261 710 226 710 q 317 740 296 710 q 338 810 338 769 q 317 880 338 850 z "},"»":{"ha":843,"x_min":51,"x_max":828,"o":"m 828 394 l 617 108 l 413 108 l 624 394 l 413 681 l 617 681 l 828 394 m 467 394 l 256 108 l 51 108 l 263 394 l 51 681 l 256 681 l 467 394 z "},"¼":{"ha":1022,"x_min":60,"x_max":976,"o":"m 247 444 l 114 444 l 114 796 l 60 785 l 60 888 q 111 914 86 888 q 142 969 136 940 l 247 969 l 247 444 m 775 972 l 268 -118 l 82 -118 l 589 972 l 775 972 m 976 143 l 908 143 l 908 0 l 775 0 l 775 143 l 532 143 l 792 525 l 908 525 l 908 242 l 976 242 l 976 143 m 775 242 l 775 347 l 700 242 l 775 242 z "},"½":{"ha":1018,"x_min":56,"x_max":969,"o":"m 771 972 l 264 -118 l 78 -118 l 585 972 l 771 972 m 969 0 l 610 0 q 826 375 826 297 q 776 435 826 435 q 728 422 751 435 q 688 392 704 410 q 663 360 672 374 q 649 338 654 347 l 632 458 q 800 536 675 536 q 916 494 881 536 q 951 399 951 453 q 839 138 951 307 l 969 138 l 969 0 m 243 444 l 110 444 l 110 796 l 56 785 l 56 888 q 107 914 82 888 q 138 969 132 940 l 243 969 l 243 444 z "},"¾":{"ha":1256,"x_min":43,"x_max":1208,"o":"m 1003 972 l 496 -118 l 310 -118 l 817 972 l 1003 972 m 192 433 q 99 448 147 433 q 43 475 51 463 l 76 600 q 182 569 119 569 q 275 600 275 569 q 214 679 275 679 l 122 679 l 132 779 l 179 779 q 223 788 206 779 q 245 806 240 797 q 250 822 250 815 q 163 874 250 874 q 97 856 117 874 l 79 946 q 132 971 96 961 q 201 981 168 981 q 292 966 254 981 q 348 927 331 951 q 373 880 365 903 q 381 833 381 857 q 374 785 381 808 q 363 749 368 761 q 353 736 357 738 q 371 707 357 726 q 393 665 385 688 q 401 611 401 643 q 340 481 401 528 q 192 433 278 433 m 1208 143 l 1140 143 l 1140 0 l 1007 0 l 1007 143 l 764 143 l 1024 525 l 1140 525 l 1140 242 l 1208 242 l 1208 143 m 1007 242 l 1007 347 l 932 242 l 1007 242 z "},"¿":{"ha":608,"x_min":64,"x_max":578,"o":"m 279 417 l 396 417 q 400 343 400 354 q 373 224 400 285 q 313 122 346 164 q 253 24 281 79 q 226 -82 226 -32 q 265 -178 226 -146 q 367 -211 304 -211 q 539 -121 475 -211 l 578 -249 q 356 -347 511 -347 q 141 -263 218 -347 q 64 -83 64 -179 q 86 11 64 -37 q 140 103 108 60 l 203 190 q 256 289 233 235 q 279 399 279 343 l 279 417 m 251 694 l 424 694 l 424 522 l 251 522 l 251 694 z "},"À":{"ha":868,"x_min":4,"x_max":864,"o":"m 864 0 l 679 0 l 596 235 l 272 235 l 189 0 l 4 0 l 350 972 l 518 972 l 864 0 m 535 407 l 433 692 l 333 407 l 535 407 m 564 1090 l 304 1175 l 304 1319 l 564 1193 l 564 1090 z "},"Á":{"ha":868,"x_min":4,"x_max":864,"o":"m 864 0 l 679 0 l 596 235 l 272 235 l 189 0 l 4 0 l 350 972 l 518 972 l 864 0 m 535 407 l 433 692 l 333 407 l 535 407 m 564 1175 l 304 1090 l 304 1193 l 564 1319 l 564 1175 z "},"Â":{"ha":868,"x_min":4,"x_max":864,"o":"m 864 0 l 679 0 l 596 235 l 272 235 l 189 0 l 4 0 l 350 972 l 518 972 l 864 0 m 535 407 l 433 692 l 333 407 l 535 407 m 638 1090 l 433 1189 l 229 1090 l 229 1193 l 433 1319 l 638 1193 l 638 1090 z "},"Ã":{"ha":868,"x_min":4,"x_max":864,"o":"m 864 0 l 679 0 l 596 235 l 272 235 l 189 0 l 4 0 l 350 972 l 518 972 l 864 0 m 535 407 l 433 692 l 333 407 l 535 407 m 531 1110 q 434 1139 490 1110 q 354 1168 378 1168 q 310 1148 326 1168 q 288 1103 293 1128 l 172 1131 q 231 1234 179 1196 q 346 1272 283 1272 q 440 1243 392 1272 q 510 1214 488 1214 q 563 1235 540 1214 q 589 1279 585 1256 l 694 1251 q 641 1152 685 1194 q 531 1110 597 1110 z "},"Ä":{"ha":868,"x_min":4,"x_max":864,"o":"m 864 0 l 679 0 l 596 235 l 272 235 l 189 0 l 4 0 l 350 972 l 518 972 l 864 0 m 535 407 l 433 692 l 333 407 l 535 407 m 606 1103 l 471 1103 l 471 1250 l 606 1250 l 606 1103 m 396 1103 l 261 1103 l 261 1250 l 396 1250 l 396 1103 z "},"Å":{"ha":868,"x_min":4,"x_max":864,"o":"m 864 0 l 679 0 l 596 235 l 272 235 l 189 0 l 4 0 l 350 972 l 518 972 l 864 0 m 535 407 l 433 692 l 333 407 l 535 407 m 538 1113 q 518 1095 538 1113 q 433 1078 499 1078 q 328 1113 368 1078 q 289 1201 289 1149 q 328 1290 289 1254 q 433 1326 368 1326 q 538 1290 499 1326 q 578 1201 578 1254 q 538 1113 578 1149 m 477 1242 q 468 1250 477 1242 q 433 1258 460 1258 q 390 1242 407 1258 q 372 1201 372 1226 q 390 1160 372 1176 q 433 1144 407 1144 q 477 1160 460 1144 q 494 1201 494 1176 q 477 1242 494 1226 z "},"Æ":{"ha":1204,"x_min":-15,"x_max":1157,"o":"m 1157 0 l 551 0 l 551 235 l 282 235 l 169 0 l -15 0 l 458 972 l 1144 972 l 1144 800 l 733 800 l 733 593 l 1050 593 l 1050 421 l 733 421 l 733 172 l 1157 172 l 1157 0 m 551 407 l 551 796 l 364 407 l 551 407 z "},"Ç":{"ha":847,"x_min":49,"x_max":804,"o":"m 528 -19 q 183 120 317 -19 q 49 486 49 260 q 183 852 49 713 q 528 992 317 992 q 804 935 688 992 l 785 765 q 528 821 644 821 q 317 729 390 821 q 243 486 243 638 q 317 243 243 335 q 528 151 390 151 q 785 207 644 151 l 804 38 q 528 -19 688 -19 m 543 -72 l 404 -257 l 301 -269 l 399 -85 l 543 -72 z "},"È":{"ha":789,"x_min":107,"x_max":743,"o":"m 743 0 l 107 0 l 107 972 l 729 972 l 729 800 l 289 800 l 289 593 l 631 593 l 631 421 l 289 421 l 289 172 l 743 172 l 743 0 m 510 1090 l 250 1175 l 250 1319 l 510 1193 l 510 1090 z "},"É":{"ha":789,"x_min":107,"x_max":743,"o":"m 743 0 l 107 0 l 107 972 l 729 972 l 729 800 l 289 800 l 289 593 l 631 593 l 631 421 l 289 421 l 289 172 l 743 172 l 743 0 m 510 1175 l 250 1090 l 250 1193 l 510 1319 l 510 1175 z "},"Ê":{"ha":789,"x_min":107,"x_max":743,"o":"m 743 0 l 107 0 l 107 972 l 729 972 l 729 800 l 289 800 l 289 593 l 631 593 l 631 421 l 289 421 l 289 172 l 743 172 l 743 0 m 583 1090 l 379 1189 l 175 1090 l 175 1193 l 379 1319 l 583 1193 l 583 1090 z "},"Ë":{"ha":789,"x_min":107,"x_max":743,"o":"m 743 0 l 107 0 l 107 972 l 729 972 l 729 800 l 289 800 l 289 593 l 631 593 l 631 421 l 289 421 l 289 172 l 743 172 l 743 0 m 551 1103 l 417 1103 l 417 1250 l 551 1250 l 551 1103 m 342 1103 l 207 1103 l 207 1250 l 342 1250 l 342 1103 z "},"Ì":{"ha":392,"x_min":67,"x_max":326,"o":"m 285 0 l 107 0 l 107 972 l 285 972 l 285 0 m 326 1090 l 67 1175 l 67 1319 l 326 1193 l 326 1090 z "},"Í":{"ha":392,"x_min":67,"x_max":326,"o":"m 285 0 l 107 0 l 107 972 l 285 972 l 285 0 m 326 1175 l 67 1090 l 67 1193 l 326 1319 l 326 1175 z "},"Î":{"ha":392,"x_min":-8,"x_max":400,"o":"m 285 0 l 107 0 l 107 972 l 285 972 l 285 0 m 400 1090 l 196 1189 l -8 1090 l -8 1193 l 196 1319 l 400 1193 l 400 1090 z "},"Ï":{"ha":392,"x_min":24,"x_max":368,"o":"m 285 0 l 107 0 l 107 972 l 285 972 l 285 0 m 368 1103 l 233 1103 l 233 1250 l 368 1250 l 368 1103 m 158 1103 l 24 1103 l 24 1250 l 158 1250 l 158 1103 z "},"Ð":{"ha":1015,"x_min":-6,"x_max":965,"o":"m 486 0 l 122 0 l 122 415 l -6 415 l -6 546 l 122 546 l 122 972 l 486 972 q 832 842 699 972 q 965 486 965 711 q 832 131 965 261 q 486 0 699 0 m 486 801 l 300 801 l 300 546 l 469 546 l 469 415 l 300 415 l 300 171 l 486 171 q 698 254 625 171 q 771 486 771 338 q 698 718 771 635 q 486 801 625 801 z "},"Ñ":{"ha":982,"x_min":107,"x_max":875,"o":"m 875 0 l 729 0 l 285 667 l 285 0 l 107 0 l 107 972 l 282 972 l 697 344 l 697 972 l 875 972 l 875 0 m 588 1110 q 491 1139 547 1110 q 411 1168 435 1168 q 367 1148 383 1168 q 344 1103 350 1128 l 229 1131 q 288 1234 236 1196 q 403 1272 340 1272 q 497 1243 449 1272 q 567 1214 544 1214 q 619 1235 597 1214 q 646 1279 642 1256 l 751 1251 q 698 1152 742 1194 q 588 1110 654 1110 z "},"Ò":{"ha":1056,"x_min":49,"x_max":1007,"o":"m 873 120 q 806 50 873 120 q 528 -19 739 -19 q 183 120 317 -19 q 49 486 49 260 q 183 852 49 713 q 528 992 317 992 q 873 852 739 992 q 1007 486 1007 713 q 873 120 1007 260 m 739 729 q 702 775 739 729 q 528 821 665 821 q 317 729 390 821 q 243 486 243 638 q 317 243 243 335 q 528 151 390 151 q 739 243 665 151 q 813 486 813 335 q 739 729 813 638 m 657 1090 l 397 1175 l 397 1319 l 657 1193 l 657 1090 z "},"Ó":{"ha":1056,"x_min":49,"x_max":1007,"o":"m 873 120 q 806 50 873 120 q 528 -19 739 -19 q 183 120 317 -19 q 49 486 49 260 q 183 852 49 713 q 528 992 317 992 q 873 852 739 992 q 1007 486 1007 713 q 873 120 1007 260 m 739 729 q 702 775 739 729 q 528 821 665 821 q 317 729 390 821 q 243 486 243 638 q 317 243 243 335 q 528 151 390 151 q 739 243 665 151 q 813 486 813 335 q 739 729 813 638 m 657 1175 l 397 1090 l 397 1193 l 657 1319 l 657 1175 z "},"Ô":{"ha":1056,"x_min":49,"x_max":1007,"o":"m 873 120 q 806 50 873 120 q 528 -19 739 -19 q 183 120 317 -19 q 49 486 49 260 q 183 852 49 713 q 528 992 317 992 q 873 852 739 992 q 1007 486 1007 713 q 873 120 1007 260 m 739 729 q 702 775 739 729 q 528 821 665 821 q 317 729 390 821 q 243 486 243 638 q 317 243 243 335 q 528 151 390 151 q 739 243 665 151 q 813 486 813 335 q 739 729 813 638 m 732 1090 l 528 1189 l 324 1090 l 324 1193 l 528 1319 l 732 1193 l 732 1090 z "},"Õ":{"ha":1056,"x_min":49,"x_max":1007,"o":"m 873 120 q 806 50 873 120 q 528 -19 739 -19 q 183 120 317 -19 q 49 486 49 260 q 183 852 49 713 q 528 992 317 992 q 873 852 739 992 q 1007 486 1007 713 q 873 120 1007 260 m 739 729 q 702 775 739 729 q 528 821 665 821 q 317 729 390 821 q 243 486 243 638 q 317 243 243 335 q 528 151 390 151 q 739 243 665 151 q 813 486 813 335 q 739 729 813 638 m 625 1110 q 528 1139 585 1110 q 449 1168 472 1168 q 404 1148 421 1168 q 382 1103 388 1128 l 267 1131 q 326 1234 274 1196 q 440 1272 378 1272 q 534 1243 486 1272 q 604 1214 582 1214 q 657 1235 635 1214 q 683 1279 679 1256 l 789 1251 q 735 1152 779 1194 q 625 1110 692 1110 z "},"Ö":{"ha":1056,"x_min":49,"x_max":1007,"o":"m 873 120 q 806 50 873 120 q 528 -19 739 -19 q 183 120 317 -19 q 49 486 49 260 q 183 852 49 713 q 528 992 317 992 q 873 852 739 992 q 1007 486 1007 713 q 873 120 1007 260 m 739 729 q 702 775 739 729 q 528 821 665 821 q 317 729 390 821 q 243 486 243 638 q 317 243 243 335 q 528 151 390 151 q 739 243 665 151 q 813 486 813 335 q 739 729 813 638 m 700 1103 l 565 1103 l 565 1250 l 700 1250 l 700 1103 m 490 1103 l 356 1103 l 356 1250 l 490 1250 l 490 1103 z "},"×":{"ha":622,"x_min":78,"x_max":544,"o":"m 544 236 l 460 151 l 311 300 l 163 151 l 78 236 l 226 385 l 78 533 l 163 618 l 311 469 l 460 618 l 544 533 l 396 385 l 544 236 z "},"Ø":{"ha":1056,"x_min":49,"x_max":1007,"o":"m 528 -19 q 304 31 407 -19 l 254 -43 l 68 -43 l 181 121 q 49 486 49 261 q 183 852 49 713 q 528 992 317 992 q 744 944 646 992 l 779 994 l 965 994 l 869 854 q 1007 486 1007 714 q 873 120 1007 260 q 528 -19 739 -19 m 761 697 l 404 175 q 528 151 458 151 q 739 243 665 151 q 813 486 813 335 q 761 697 813 613 m 528 821 q 317 729 390 821 q 243 486 243 638 q 290 281 243 363 l 644 799 q 528 821 592 821 z "},"Ù":{"ha":997,"x_min":96,"x_max":901,"o":"m 800 97 q 749 39 800 97 q 499 -19 699 -19 q 197 97 299 -19 q 96 417 96 213 l 96 972 l 274 972 l 274 476 q 322 237 274 322 q 499 151 369 151 q 676 237 628 151 q 724 476 724 322 l 724 972 l 901 972 l 901 417 q 800 97 901 213 m 628 1090 l 368 1175 l 368 1319 l 628 1193 l 628 1090 z "},"Ú":{"ha":997,"x_min":96,"x_max":901,"o":"m 800 97 q 749 39 800 97 q 499 -19 699 -19 q 197 97 299 -19 q 96 417 96 213 l 96 972 l 274 972 l 274 476 q 322 237 274 322 q 499 151 369 151 q 676 237 628 151 q 724 476 724 322 l 724 972 l 901 972 l 901 417 q 800 97 901 213 m 628 1175 l 368 1090 l 368 1193 l 628 1319 l 628 1175 z "},"Û":{"ha":997,"x_min":96,"x_max":901,"o":"m 800 97 q 749 39 800 97 q 499 -19 699 -19 q 197 97 299 -19 q 96 417 96 213 l 96 972 l 274 972 l 274 476 q 322 237 274 322 q 499 151 369 151 q 676 237 628 151 q 724 476 724 322 l 724 972 l 901 972 l 901 417 q 800 97 901 213 m 703 1090 l 499 1189 l 294 1090 l 294 1193 l 499 1319 l 703 1193 l 703 1090 z "},"Ü":{"ha":997,"x_min":96,"x_max":901,"o":"m 800 97 q 749 39 800 97 q 499 -19 699 -19 q 197 97 299 -19 q 96 417 96 213 l 96 972 l 274 972 l 274 476 q 322 237 274 322 q 499 151 369 151 q 676 237 628 151 q 724 476 724 322 l 724 972 l 901 972 l 901 417 q 800 97 901 213 m 671 1103 l 536 1103 l 536 1250 l 671 1250 l 671 1103 m 461 1103 l 326 1103 l 326 1250 l 461 1250 l 461 1103 z "},"Ý":{"ha":831,"x_min":-10,"x_max":840,"o":"m 840 972 l 504 431 l 504 0 l 326 0 l 326 431 l -10 972 l 179 972 l 415 589 l 651 972 l 840 972 m 544 1175 l 285 1090 l 285 1193 l 544 1319 l 544 1175 z "},"Þ":{"ha":783,"x_min":107,"x_max":760,"o":"m 349 268 l 285 268 l 285 0 l 107 0 l 107 972 l 285 972 l 285 790 l 349 790 q 492 785 433 790 q 606 765 551 781 q 691 722 660 749 q 741 649 722 694 q 760 540 760 604 q 660 328 760 389 q 349 268 561 268 m 394 654 l 285 654 l 285 401 l 394 401 q 538 434 496 401 q 579 532 579 467 q 539 626 579 599 q 394 654 499 654 z "},"ß":{"ha":785,"x_min":24,"x_max":756,"o":"m 449 -21 q 365 -14 403 -21 l 365 115 q 460 117 428 115 q 522 128 492 119 q 565 156 553 138 q 576 208 576 175 q 547 303 576 258 q 481 374 517 347 q 416 434 446 400 q 386 500 386 468 q 417 570 386 531 q 478 662 447 610 q 508 772 508 714 q 476 865 508 836 q 399 894 444 894 q 320 863 349 894 q 292 778 292 831 l 292 -189 l 122 -189 l 122 553 l 24 553 l 39 694 l 122 694 l 122 771 q 208 965 122 889 q 400 1042 294 1042 q 490 1026 444 1042 q 577 982 535 1011 q 647 900 619 953 q 674 781 674 847 q 657 681 674 729 q 621 603 640 631 l 585 549 q 568 510 568 522 q 597 466 568 493 q 662 410 626 439 q 726 327 697 382 q 756 207 756 272 q 670 33 756 88 q 449 -21 585 -21 z "},"à":{"ha":692,"x_min":29,"x_max":676,"o":"m 676 128 l 661 -14 l 599 -14 q 443 67 486 -14 q 231 -14 371 -14 q 87 42 144 -14 q 29 194 29 99 q 70 315 29 264 q 176 391 111 365 q 302 429 242 417 q 419 443 363 442 q 388 531 417 504 q 294 557 360 557 q 104 504 211 557 l 89 644 q 342 706 215 706 q 593 426 593 706 l 593 239 q 604 146 593 164 q 654 128 615 128 l 676 128 m 421 168 l 421 326 q 274 290 338 322 q 210 201 210 258 q 303 118 210 118 q 421 168 369 118 m 476 813 l 217 897 l 217 1042 l 476 915 l 476 813 z "},"á":{"ha":692,"x_min":29,"x_max":676,"o":"m 676 128 l 661 -14 l 599 -14 q 443 67 486 -14 q 231 -14 371 -14 q 87 42 144 -14 q 29 194 29 99 q 70 315 29 264 q 176 391 111 365 q 302 429 242 417 q 419 443 363 442 q 388 531 417 504 q 294 557 360 557 q 104 504 211 557 l 89 644 q 342 706 215 706 q 593 426 593 706 l 593 239 q 604 146 593 164 q 654 128 615 128 l 676 128 m 421 168 l 421 326 q 274 290 338 322 q 210 201 210 258 q 303 118 210 118 q 421 168 369 118 m 476 897 l 217 813 l 217 915 l 476 1042 l 476 897 z "},"â":{"ha":692,"x_min":29,"x_max":676,"o":"m 676 128 l 661 -14 l 599 -14 q 443 67 486 -14 q 231 -14 371 -14 q 87 42 144 -14 q 29 194 29 99 q 70 315 29 264 q 176 391 111 365 q 302 429 242 417 q 419 443 363 442 q 388 531 417 504 q 294 557 360 557 q 104 504 211 557 l 89 644 q 342 706 215 706 q 593 426 593 706 l 593 239 q 604 146 593 164 q 654 128 615 128 l 676 128 m 421 168 l 421 326 q 274 290 338 322 q 210 201 210 258 q 303 118 210 118 q 421 168 369 118 m 551 813 l 347 911 l 143 813 l 143 915 l 347 1042 l 551 915 l 551 813 z "},"ã":{"ha":692,"x_min":29,"x_max":676,"o":"m 676 128 l 661 -14 l 599 -14 q 443 67 486 -14 q 231 -14 371 -14 q 87 42 144 -14 q 29 194 29 99 q 70 315 29 264 q 176 391 111 365 q 302 429 242 417 q 419 443 363 442 q 388 531 417 504 q 294 557 360 557 q 104 504 211 557 l 89 644 q 342 706 215 706 q 593 426 593 706 l 593 239 q 604 146 593 164 q 654 128 615 128 l 676 128 m 421 168 l 421 326 q 274 290 338 322 q 210 201 210 258 q 303 118 210 118 q 421 168 369 118 m 440 832 q 344 861 400 832 q 264 890 288 890 q 219 870 236 890 q 197 825 203 850 l 82 853 q 141 956 89 918 q 256 994 193 994 q 349 965 301 994 q 419 936 397 936 q 472 957 450 936 q 499 1001 494 978 l 604 974 q 551 874 594 917 q 440 832 507 832 z "},"ä":{"ha":692,"x_min":29,"x_max":676,"o":"m 676 128 l 661 -14 l 599 -14 q 443 67 486 -14 q 231 -14 371 -14 q 87 42 144 -14 q 29 194 29 99 q 70 315 29 264 q 176 391 111 365 q 302 429 242 417 q 419 443 363 442 q 388 531 417 504 q 294 557 360 557 q 104 504 211 557 l 89 644 q 342 706 215 706 q 593 426 593 706 l 593 239 q 604 146 593 164 q 654 128 615 128 l 676 128 m 421 168 l 421 326 q 274 290 338 322 q 210 201 210 258 q 303 118 210 118 q 421 168 369 118 m 519 825 l 385 825 l 385 972 l 519 972 l 519 825 m 310 825 l 175 825 l 175 972 l 310 972 l 310 825 z "},"å":{"ha":692,"x_min":29,"x_max":676,"o":"m 676 128 l 661 -14 l 599 -14 q 443 67 486 -14 q 231 -14 371 -14 q 87 42 144 -14 q 29 194 29 99 q 70 315 29 264 q 176 391 111 365 q 302 429 242 417 q 419 443 363 442 q 388 531 417 504 q 294 557 360 557 q 104 504 211 557 l 89 644 q 342 706 215 706 q 593 426 593 706 l 593 239 q 604 146 593 164 q 654 128 615 128 l 676 128 m 421 168 l 421 326 q 274 290 338 322 q 210 201 210 258 q 303 118 210 118 q 421 168 369 118 m 452 835 q 432 818 452 835 q 347 800 413 800 q 242 835 282 800 q 203 924 203 871 q 242 1013 203 976 q 347 1049 282 1049 q 452 1013 413 1049 q 492 924 492 976 q 452 835 492 871 m 391 965 q 382 973 391 965 q 347 981 374 981 q 303 965 321 981 q 286 924 286 949 q 303 883 286 899 q 347 867 321 867 q 391 883 374 867 q 408 924 408 899 q 391 965 408 949 z "},"æ":{"ha":1103,"x_min":28,"x_max":1064,"o":"m 1053 310 l 613 310 q 681 173 626 218 q 811 128 736 128 q 919 144 858 128 q 1025 185 981 161 l 1033 39 q 803 -14 933 -14 q 525 117 597 -14 q 256 -21 417 -21 q 88 32 147 -21 q 28 176 28 85 q 56 285 28 238 q 126 358 85 332 q 224 403 167 385 q 326 427 281 421 q 419 436 371 433 q 389 529 417 501 q 293 557 361 557 q 103 504 210 557 l 88 644 q 339 706 214 706 q 474 678 422 706 q 549 582 525 650 q 635 667 567 629 q 789 706 704 706 q 988 624 911 706 q 1064 407 1064 542 q 1053 310 1064 363 m 783 564 q 675 526 721 564 q 617 426 629 488 l 910 426 q 879 523 910 482 q 783 564 849 564 m 431 319 q 278 286 347 318 q 208 192 208 254 q 233 134 208 156 q 292 113 257 113 q 388 158 344 113 q 432 281 432 203 q 431 319 432 304 z "},"ç":{"ha":624,"x_min":39,"x_max":585,"o":"m 376 -14 q 128 89 217 -14 q 39 346 39 192 q 128 603 39 500 q 376 706 217 706 q 585 654 503 706 l 569 507 q 390 564 483 564 q 262 504 308 564 q 215 346 215 444 q 262 188 215 247 q 390 128 308 128 q 569 185 483 128 l 585 38 q 376 -14 503 -14 m 472 -72 l 333 -257 l 231 -269 l 328 -85 l 472 -72 z "},"è":{"ha":715,"x_min":39,"x_max":678,"o":"m 667 310 l 218 310 q 291 174 232 219 q 425 128 350 128 q 533 144 472 128 q 639 185 594 161 l 647 39 q 415 -14 547 -14 q 137 89 235 -14 q 39 346 39 192 q 128 601 39 497 q 372 706 218 706 q 592 623 506 706 q 678 404 678 540 q 667 310 678 363 m 472 522 q 457 543 472 522 q 378 564 442 564 q 275 526 314 564 q 222 426 236 489 l 503 426 q 472 522 503 481 m 488 813 l 228 897 l 228 1042 l 488 915 l 488 813 z "},"é":{"ha":715,"x_min":39,"x_max":678,"o":"m 667 310 l 218 310 q 291 174 232 219 q 425 128 350 128 q 533 144 472 128 q 639 185 594 161 l 647 39 q 415 -14 547 -14 q 137 89 235 -14 q 39 346 39 192 q 128 601 39 497 q 372 706 218 706 q 592 623 506 706 q 678 404 678 540 q 667 310 678 363 m 472 522 q 457 543 472 522 q 378 564 442 564 q 275 526 314 564 q 222 426 236 489 l 503 426 q 472 522 503 481 m 488 897 l 228 813 l 228 915 l 488 1042 l 488 897 z "},"ê":{"ha":715,"x_min":39,"x_max":678,"o":"m 667 310 l 218 310 q 291 174 232 219 q 425 128 350 128 q 533 144 472 128 q 639 185 594 161 l 647 39 q 415 -14 547 -14 q 137 89 235 -14 q 39 346 39 192 q 128 601 39 497 q 372 706 218 706 q 592 623 506 706 q 678 404 678 540 q 667 310 678 363 m 472 522 q 457 543 472 522 q 378 564 442 564 q 275 526 314 564 q 222 426 236 489 l 503 426 q 472 522 503 481 m 561 813 l 357 911 l 153 813 l 153 915 l 357 1042 l 561 915 l 561 813 z "},"ë":{"ha":715,"x_min":39,"x_max":678,"o":"m 667 310 l 218 310 q 291 174 232 219 q 425 128 350 128 q 533 144 472 128 q 639 185 594 161 l 647 39 q 415 -14 547 -14 q 137 89 235 -14 q 39 346 39 192 q 128 601 39 497 q 372 706 218 706 q 592 623 506 706 q 678 404 678 540 q 667 310 678 363 m 472 522 q 457 543 472 522 q 378 564 442 564 q 275 526 314 564 q 222 426 236 489 l 503 426 q 472 522 503 481 m 529 825 l 394 825 l 394 972 l 529 972 l 529 825 m 319 825 l 185 825 l 185 972 l 319 972 l 319 825 z "},"ì":{"ha":333,"x_min":38,"x_max":297,"o":"m 253 0 l 81 0 l 81 694 l 253 694 l 253 0 m 297 813 l 38 897 l 38 1042 l 297 915 l 297 813 z "},"í":{"ha":333,"x_min":38,"x_max":297,"o":"m 253 0 l 81 0 l 81 694 l 253 694 l 253 0 m 297 897 l 38 813 l 38 915 l 297 1042 l 297 897 z "},"î":{"ha":333,"x_min":-37,"x_max":371,"o":"m 253 0 l 81 0 l 81 694 l 253 694 l 253 0 m 371 813 l 167 911 l -37 813 l -37 915 l 167 1042 l 371 915 l 371 813 z "},"ï":{"ha":333,"x_min":-6,"x_max":339,"o":"m 253 0 l 81 0 l 81 694 l 253 694 l 253 0 m 339 825 l 204 825 l 204 972 l 339 972 l 339 825 m 129 825 l -6 825 l -6 972 l 129 972 l 129 825 z "},"ð":{"ha":696,"x_min":22,"x_max":656,"o":"m 336 -18 q 112 67 201 -18 q 22 285 22 153 q 100 499 22 407 q 317 592 178 592 q 479 538 410 592 q 445 656 474 585 q 385 747 417 726 q 194 668 293 678 l 140 769 q 307 831 213 769 q 143 900 226 899 l 200 974 q 401 901 304 971 q 479 988 453 949 l 572 965 q 476 835 518 881 q 607 623 558 747 q 656 358 656 499 q 626 176 656 253 q 549 58 597 99 q 447 0 500 18 q 336 -18 394 -18 m 335 457 q 225 410 264 457 q 186 306 186 364 q 226 176 186 229 q 339 122 265 122 q 445 164 401 122 q 489 288 489 206 q 449 413 489 368 q 335 457 410 457 z "},"ñ":{"ha":767,"x_min":81,"x_max":693,"o":"m 693 0 l 521 0 l 521 374 q 488 517 521 471 q 383 564 456 564 q 253 504 304 564 l 253 0 l 81 0 l 81 694 l 242 694 l 244 653 q 397 706 317 706 q 693 374 693 706 l 693 0 m 481 832 q 384 861 440 832 q 304 890 328 890 q 260 870 276 890 q 238 825 243 850 l 122 853 q 181 956 129 918 q 296 994 233 994 q 390 965 342 994 q 460 936 438 936 q 513 957 490 936 q 539 1001 535 978 l 644 974 q 591 874 635 917 q 481 832 547 832 z "},"ò":{"ha":781,"x_min":39,"x_max":742,"o":"m 647 90 q 599 38 647 90 q 390 -14 551 -14 q 134 90 229 -14 q 39 346 39 194 q 134 601 39 497 q 390 706 229 706 q 647 601 551 706 q 742 346 742 497 q 647 90 742 194 m 519 504 q 495 534 519 504 q 390 564 472 564 q 262 504 308 564 q 215 346 215 444 q 262 188 215 247 q 390 128 308 128 q 519 188 472 128 q 565 346 565 247 q 519 504 565 444 m 519 813 l 260 897 l 260 1042 l 519 915 l 519 813 z "},"ó":{"ha":781,"x_min":39,"x_max":742,"o":"m 647 90 q 599 38 647 90 q 390 -14 551 -14 q 134 90 229 -14 q 39 346 39 194 q 134 601 39 497 q 390 706 229 706 q 647 601 551 706 q 742 346 742 497 q 647 90 742 194 m 519 504 q 495 534 519 504 q 390 564 472 564 q 262 504 308 564 q 215 346 215 444 q 262 188 215 247 q 390 128 308 128 q 519 188 472 128 q 565 346 565 247 q 519 504 565 444 m 519 897 l 260 813 l 260 915 l 519 1042 l 519 897 z "},"ô":{"ha":781,"x_min":39,"x_max":742,"o":"m 647 90 q 599 38 647 90 q 390 -14 551 -14 q 134 90 229 -14 q 39 346 39 194 q 134 601 39 497 q 390 706 229 706 q 647 601 551 706 q 742 346 742 497 q 647 90 742 194 m 519 504 q 495 534 519 504 q 390 564 472 564 q 262 504 308 564 q 215 346 215 444 q 262 188 215 247 q 390 128 308 128 q 519 188 472 128 q 565 346 565 247 q 519 504 565 444 m 594 813 l 390 911 l 186 813 l 186 915 l 390 1042 l 594 915 l 594 813 z "},"õ":{"ha":781,"x_min":39,"x_max":742,"o":"m 647 90 q 599 38 647 90 q 390 -14 551 -14 q 134 90 229 -14 q 39 346 39 194 q 134 601 39 497 q 390 706 229 706 q 647 601 551 706 q 742 346 742 497 q 647 90 742 194 m 519 504 q 495 534 519 504 q 390 564 472 564 q 262 504 308 564 q 215 346 215 444 q 262 188 215 247 q 390 128 308 128 q 519 188 472 128 q 565 346 565 247 q 519 504 565 444 m 488 832 q 391 861 447 832 q 311 890 335 890 q 267 870 283 890 q 244 825 250 850 l 129 853 q 188 956 136 918 q 303 994 240 994 q 397 965 349 994 q 467 936 444 936 q 519 957 497 936 q 546 1001 542 978 l 651 974 q 598 874 642 917 q 488 832 554 832 z "},"ö":{"ha":781,"x_min":39,"x_max":742,"o":"m 647 90 q 599 38 647 90 q 390 -14 551 -14 q 134 90 229 -14 q 39 346 39 194 q 134 601 39 497 q 390 706 229 706 q 647 601 551 706 q 742 346 742 497 q 647 90 742 194 m 519 504 q 495 534 519 504 q 390 564 472 564 q 262 504 308 564 q 215 346 215 444 q 262 188 215 247 q 390 128 308 128 q 519 188 472 128 q 565 346 565 247 q 519 504 565 444 m 563 825 l 428 825 l 428 972 l 563 972 l 563 825 m 353 825 l 218 825 l 218 972 l 353 972 l 353 825 z "},"÷":{"ha":779,"x_min":69,"x_max":708,"o":"m 469 561 l 297 561 l 297 742 l 469 742 l 469 561 m 708 319 l 69 319 l 69 450 l 708 450 l 708 319 m 469 28 l 297 28 l 297 208 l 469 208 l 469 28 z "},"ø":{"ha":781,"x_min":39,"x_max":742,"o":"m 390 -14 q 293 -3 342 -14 l 271 -50 l 124 -50 l 174 54 q 74 179 108 103 q 39 346 39 256 q 134 601 39 497 q 390 706 229 706 q 483 694 436 706 l 506 742 l 657 742 l 606 638 q 742 346 742 533 q 647 90 742 194 q 390 -14 551 -14 m 532 485 l 358 131 q 390 128 378 128 q 519 188 472 128 q 565 346 565 247 q 532 485 565 425 m 390 564 q 262 504 308 564 q 215 346 215 444 q 247 207 215 264 l 418 561 q 390 564 401 564 z "},"ù":{"ha":767,"x_min":74,"x_max":686,"o":"m 686 0 l 525 0 l 522 42 q 368 -14 449 -14 q 74 321 74 -14 l 74 694 l 246 694 l 246 321 q 278 177 246 224 q 383 131 311 131 q 514 189 464 131 l 514 694 l 686 694 l 686 0 m 513 813 l 253 897 l 253 1042 l 513 915 l 513 813 z "},"ú":{"ha":767,"x_min":74,"x_max":686,"o":"m 686 0 l 525 0 l 522 42 q 368 -14 449 -14 q 74 321 74 -14 l 74 694 l 246 694 l 246 321 q 278 177 246 224 q 383 131 311 131 q 514 189 464 131 l 514 694 l 686 694 l 686 0 m 513 897 l 253 813 l 253 915 l 513 1042 l 513 897 z "},"û":{"ha":767,"x_min":74,"x_max":686,"o":"m 686 0 l 525 0 l 522 42 q 368 -14 449 -14 q 74 321 74 -14 l 74 694 l 246 694 l 246 321 q 278 177 246 224 q 383 131 311 131 q 514 189 464 131 l 514 694 l 686 694 l 686 0 m 588 813 l 383 911 l 179 813 l 179 915 l 383 1042 l 588 915 l 588 813 z "},"ü":{"ha":767,"x_min":74,"x_max":686,"o":"m 686 0 l 525 0 l 522 42 q 368 -14 449 -14 q 74 321 74 -14 l 74 694 l 246 694 l 246 321 q 278 177 246 224 q 383 131 311 131 q 514 189 464 131 l 514 694 l 686 694 l 686 0 m 556 825 l 421 825 l 421 972 l 556 972 l 556 825 m 346 825 l 211 825 l 211 972 l 346 972 l 346 825 z "},"ý":{"ha":746,"x_min":1,"x_max":743,"o":"m 743 694 l 308 -336 l 136 -336 l 290 46 l 1 694 l 193 694 l 371 247 l 551 694 l 743 694 m 503 897 l 243 813 l 243 915 l 503 1042 l 503 897 z "},"þ":{"ha":793,"x_min":79,"x_max":754,"o":"m 414 -14 q 251 33 322 -14 l 251 -336 l 79 -336 l 79 1042 l 251 1042 l 251 660 q 414 706 321 706 q 664 602 574 706 q 754 346 754 499 q 664 90 754 193 q 414 -14 574 -14 m 403 564 q 283 506 322 564 q 243 346 243 447 q 283 186 243 244 q 403 128 322 128 q 531 188 485 128 q 578 346 578 247 q 531 504 578 444 q 403 564 485 564 z "},"ÿ":{"ha":746,"x_min":1,"x_max":743,"o":"m 743 694 l 308 -336 l 136 -336 l 290 46 l 1 694 l 193 694 l 371 247 l 551 694 l 743 694 m 544 825 l 410 825 l 410 972 l 544 972 l 544 825 m 335 825 l 200 825 l 200 972 l 335 972 l 335 825 z "},"ı":{"ha":333,"x_min":81,"x_max":253,"o":"m 253 0 l 81 0 l 81 694 l 253 694 l 253 0 z "},"Œ":{"ha":1476,"x_min":49,"x_max":1429,"o":"m 1429 0 l 824 0 l 824 76 q 528 -19 697 -19 q 183 120 317 -19 q 49 486 49 260 q 183 852 49 713 q 528 992 317 992 q 824 896 697 992 l 824 972 l 1417 972 l 1417 800 l 1006 800 l 1006 593 l 1322 593 l 1322 421 l 1006 421 l 1006 172 l 1429 172 l 1429 0 m 739 729 q 702 775 739 729 q 528 821 665 821 q 317 729 390 821 q 243 486 243 638 q 317 243 243 335 q 528 151 390 151 q 739 243 665 151 q 813 486 813 335 q 739 729 813 638 z "},"œ":{"ha":1243,"x_min":39,"x_max":1206,"o":"m 1194 310 l 746 310 q 819 174 760 219 q 953 128 878 128 q 1061 144 1000 128 q 1167 185 1122 161 l 1175 39 q 943 -14 1075 -14 q 654 99 756 -14 q 390 -14 557 -14 q 134 90 229 -14 q 39 346 39 194 q 134 601 39 497 q 390 706 229 706 q 651 596 553 706 q 900 706 744 706 q 1119 623 1033 706 q 1206 404 1206 540 q 1194 310 1206 363 m 1000 522 q 985 543 1000 522 q 906 564 969 564 q 803 526 842 564 q 750 426 764 489 l 1031 426 q 1000 522 1031 481 m 519 504 q 495 534 519 504 q 390 564 472 564 q 262 504 308 564 q 215 346 215 444 q 262 188 215 247 q 390 128 308 128 q 519 188 472 128 q 565 346 565 247 q 519 504 565 444 z "},"Š":{"ha":806,"x_min":53,"x_max":765,"o":"m 389 -19 q 199 1 285 -19 q 67 51 113 22 l 88 254 q 212 181 132 211 q 393 151 292 151 q 567 257 567 151 q 553 310 567 286 q 523 349 539 333 q 469 381 507 364 q 411 406 432 399 q 340 431 390 414 q 281 451 297 444 l 225 475 q 168 503 186 492 q 124 535 150 514 q 85 579 97 557 q 63 633 72 601 q 53 700 53 664 q 139 903 53 814 q 404 992 225 992 q 584 968 497 992 q 714 917 671 944 l 696 735 q 411 822 536 822 q 287 799 340 822 q 233 719 233 775 q 282 638 233 667 q 429 579 331 610 q 508 554 481 564 q 582 525 535 544 q 656 484 629 506 q 710 431 682 463 q 752 358 739 400 q 765 264 765 315 q 758 191 765 225 q 727 117 751 157 q 663 48 703 76 q 553 0 624 19 q 389 -19 483 -19 m 607 1217 l 403 1090 l 199 1217 l 199 1319 l 403 1221 l 607 1319 l 607 1217 z "},"š":{"ha":588,"x_min":43,"x_max":550,"o":"m 278 -14 q 43 38 121 -14 l 58 185 q 155 137 93 158 q 272 115 217 115 q 353 138 329 115 q 378 192 378 160 q 347 251 378 231 q 250 290 315 271 q 190 309 211 301 q 138 333 169 317 q 91 367 107 349 q 63 416 75 386 q 50 485 50 446 q 110 639 50 572 q 304 706 171 706 q 430 690 368 706 q 522 654 492 675 l 507 507 q 424 559 478 536 q 317 582 369 582 q 234 563 267 582 q 201 506 201 544 q 203 485 201 494 q 211 469 206 476 q 222 455 217 461 q 239 443 228 449 q 258 434 250 438 q 281 425 265 431 l 304 418 q 331 410 313 415 q 360 403 350 406 q 499 332 447 378 q 550 190 550 286 q 278 -14 550 -14 m 493 939 l 289 813 l 85 939 l 85 1042 l 289 943 l 493 1042 l 493 939 z "},"Ÿ":{"ha":831,"x_min":-10,"x_max":840,"o":"m 840 972 l 504 431 l 504 0 l 326 0 l 326 431 l -10 972 l 179 972 l 415 589 l 651 972 l 840 972 m 588 1103 l 453 1103 l 453 1250 l 588 1250 l 588 1103 m 378 1103 l 243 1103 l 243 1250 l 378 1250 l 378 1103 z "},"Ž":{"ha":761,"x_min":11,"x_max":751,"o":"m 751 972 l 304 172 l 689 172 l 689 0 l 11 0 l 458 800 l 74 800 l 74 972 l 751 972 m 583 1217 l 379 1090 l 175 1217 l 175 1319 l 379 1221 l 583 1319 l 583 1217 z "},"ž":{"ha":656,"x_min":29,"x_max":628,"o":"m 628 694 l 321 153 l 613 153 l 613 0 l 29 0 l 336 542 l 43 542 l 43 694 l 628 694 m 532 939 l 328 813 l 124 939 l 124 1042 l 328 943 l 532 1042 l 532 939 z "},"ƒ":{"ha":493,"x_min":-49,"x_max":525,"o":"m 525 975 l 510 844 q 443 854 467 854 q 358 820 383 854 q 317 694 332 786 l 493 694 l 482 581 l 299 581 l 190 -112 q 122 -281 172 -226 q 22 -336 71 -336 l -21 -336 l -49 -194 q 16 -173 -6 -194 q 47 -83 38 -151 l 144 581 l 36 581 l 49 694 l 161 694 l 169 749 q 258 926 188 861 q 428 992 329 992 q 525 975 475 992 z "},"ȷ":{"ha":333,"x_min":-3,"x_max":253,"o":"m 75 -336 l 13 -336 l -3 -194 q 67 -178 54 -194 q 81 -83 81 -162 l 81 694 l 253 694 l 253 -154 q 208 -285 253 -235 q 75 -336 164 -336 z "},"ˆ":{"ha":619,"x_min":106,"x_max":514,"o":"m 514 813 l 310 911 l 106 813 l 106 915 l 310 1042 l 514 915 l 514 813 z "},"ˇ":{"ha":619,"x_min":106,"x_max":514,"o":"m 514 939 l 310 813 l 106 939 l 106 1042 l 310 943 l 514 1042 l 514 939 z "},"˚":{"ha":406,"x_min":58,"x_max":347,"o":"m 308 835 q 288 818 308 835 q 203 800 268 800 q 98 835 138 800 q 58 924 58 871 q 98 1013 58 976 q 203 1049 138 1049 q 308 1013 268 1049 q 347 924 347 976 q 308 835 347 871 m 247 965 q 238 973 247 965 q 203 981 229 981 q 159 965 176 981 q 142 924 142 949 q 159 883 142 899 q 203 867 176 867 q 247 883 229 867 q 264 924 264 899 q 247 965 264 949 z "},"˜":{"ha":733,"x_min":106,"x_max":628,"o":"m 464 832 q 367 861 424 832 q 288 890 311 890 q 243 870 260 890 q 221 825 226 850 l 106 853 q 165 956 113 918 q 279 994 217 994 q 373 965 325 994 q 443 936 421 936 q 496 957 474 936 q 522 1001 518 978 l 628 974 q 574 874 618 917 q 464 832 531 832 z "},"–":{"ha":689,"x_min":75,"x_max":614,"o":"m 614 319 l 75 319 l 75 450 l 614 450 l 614 319 z "},"—":{"ha":817,"x_min":75,"x_max":742,"o":"m 742 319 l 75 319 l 75 450 l 742 450 l 742 319 z "},"‘":{"ha":292,"x_min":60,"x_max":232,"o":"m 60 889 l 196 1042 l 232 1022 l 186 903 l 232 889 l 232 708 l 60 708 l 60 889 z "},"’":{"ha":267,"x_min":57,"x_max":229,"o":"m 229 861 l 93 708 l 57 728 l 103 847 l 57 861 l 57 1042 l 229 1042 l 229 861 z "},"‚":{"ha":322,"x_min":75,"x_max":247,"o":"m 247 0 l 111 -153 l 75 -133 l 121 -14 l 75 0 l 75 181 l 247 181 l 247 0 z "},"“":{"ha":583,"x_min":60,"x_max":524,"o":"m 60 889 l 196 1042 l 232 1022 l 186 903 l 232 889 l 232 708 l 60 708 l 60 889 m 351 889 l 488 1042 l 524 1022 l 478 903 l 524 889 l 524 708 l 351 708 l 351 889 z "},"”":{"ha":558,"x_min":57,"x_max":521,"o":"m 521 861 l 385 708 l 349 728 l 394 847 l 349 861 l 349 1042 l 521 1042 l 521 861 m 229 861 l 93 708 l 57 728 l 103 847 l 57 861 l 57 1042 l 229 1042 l 229 861 z "},"„":{"ha":642,"x_min":75,"x_max":567,"o":"m 247 0 l 111 -153 l 75 -133 l 121 -14 l 75 0 l 75 181 l 247 181 l 247 0 m 567 0 l 431 -153 l 394 -133 l 440 -14 l 394 0 l 394 181 l 567 181 l 567 0 z "},"†":{"ha":592,"x_min":50,"x_max":542,"o":"m 542 485 l 360 521 l 400 357 l 358 0 l 233 0 l 192 357 l 232 521 l 50 485 l 50 668 l 232 631 l 192 843 l 400 843 l 360 631 l 542 668 l 542 485 z "},"‡":{"ha":656,"x_min":82,"x_max":574,"o":"m 574 93 l 392 131 l 432 -82 l 224 -82 l 264 131 l 82 93 l 82 276 l 264 240 l 224 381 l 264 521 l 82 485 l 82 668 l 264 631 l 224 843 l 432 843 l 392 631 l 574 668 l 574 485 l 392 521 l 432 381 l 392 240 l 574 276 l 574 93 z "},"•":{"ha":414,"x_min":56,"x_max":358,"o":"m 314 279 q 292 257 314 279 q 207 235 269 235 q 100 279 144 235 q 56 386 56 324 q 100 493 56 449 q 207 538 144 538 q 314 493 269 538 q 358 386 358 449 q 314 279 358 324 z "},"…":{"ha":978,"x_min":75,"x_max":903,"o":"m 247 0 l 75 0 l 75 181 l 247 181 l 247 0 m 575 0 l 403 0 l 403 181 l 575 181 l 575 0 m 903 0 l 731 0 l 731 181 l 903 181 l 903 0 z "},"‰":{"ha":1672,"x_min":49,"x_max":1626,"o":"m 910 -12 q 758 56 815 -12 q 701 239 701 125 q 763 428 701 357 q 917 500 824 500 q 1067 432 1008 500 q 1125 250 1125 364 q 1066 59 1125 131 q 910 -12 1007 -12 m 936 972 l 350 -17 l 206 -17 l 792 972 l 936 972 m 257 465 q 106 534 163 465 q 49 717 49 603 q 110 906 49 835 q 264 978 171 978 q 414 910 356 978 q 472 728 472 842 q 413 537 472 608 q 257 465 354 465 m 915 400 q 842 360 872 400 q 813 239 813 319 q 840 126 813 163 q 911 90 867 90 q 1015 250 1015 90 q 986 363 1015 325 q 915 400 957 400 m 263 878 q 190 838 219 878 q 160 717 160 797 q 187 604 160 640 q 258 568 214 568 q 363 728 363 568 q 333 840 363 803 q 263 878 304 878 m 1411 -12 q 1260 56 1317 -12 q 1203 239 1203 125 q 1264 428 1203 357 q 1418 500 1325 500 q 1568 432 1510 500 q 1626 250 1626 364 q 1567 59 1626 131 q 1411 -12 1508 -12 m 1417 400 q 1344 360 1374 400 q 1314 239 1314 319 q 1341 126 1314 163 q 1413 90 1368 90 q 1517 250 1517 90 q 1488 363 1517 325 q 1417 400 1458 400 z "},"‹":{"ha":482,"x_min":15,"x_max":431,"o":"m 431 108 l 226 108 l 15 394 l 226 681 l 431 681 l 219 394 l 431 108 z "},"›":{"ha":482,"x_min":51,"x_max":467,"o":"m 467 394 l 256 108 l 51 108 l 263 394 l 51 681 l 256 681 l 467 394 z "},"⁰":{"ha":554,"x_min":40,"x_max":514,"o":"m 272 433 q 103 508 167 433 q 40 700 40 582 q 109 901 40 821 q 282 981 178 981 q 449 903 383 981 q 514 710 514 826 q 448 510 514 588 q 272 433 382 433 m 281 864 q 206 822 239 864 q 172 700 172 781 q 201 589 172 624 q 274 554 229 554 q 383 710 383 554 q 352 825 383 786 q 281 864 321 864 z "},"⁴":{"ha":483,"x_min":3,"x_max":447,"o":"m 447 588 l 379 588 l 379 444 l 246 444 l 246 588 l 3 588 l 263 969 l 379 969 l 379 686 l 447 686 l 447 588 m 246 686 l 246 792 l 171 686 l 246 686 z "},"⁵":{"ha":426,"x_min":33,"x_max":386,"o":"m 196 436 q 110 455 169 436 q 33 497 50 474 l 65 617 q 229 563 94 563 q 257 574 249 563 q 265 617 265 585 q 171 667 265 667 l 61 667 l 99 969 l 360 969 l 346 832 l 197 832 l 188 772 q 386 613 386 769 q 331 478 386 519 q 196 436 276 436 z "},"⁶":{"ha":442,"x_min":40,"x_max":413,"o":"m 215 433 q 88 487 136 433 q 40 650 40 540 q 128 873 40 779 q 282 969 217 967 l 371 918 q 256 842 335 918 q 176 750 176 767 q 249 761 194 761 q 366 721 319 761 q 413 610 413 681 q 357 487 413 540 q 215 433 301 433 m 239 657 q 184 645 201 657 q 167 599 167 633 q 188 569 167 582 q 226 556 210 556 q 274 573 253 556 q 294 618 294 590 q 276 645 294 633 q 239 657 258 657 z "},"⁷":{"ha":414,"x_min":39,"x_max":417,"o":"m 417 969 l 194 444 l 49 444 l 215 832 l 39 832 l 39 969 l 417 969 z "},"⁸":{"ha":474,"x_min":40,"x_max":435,"o":"m 228 433 q 89 474 138 433 q 40 579 40 514 q 99 728 40 653 q 78 773 86 736 q 69 843 69 810 q 240 981 69 981 q 406 856 406 981 q 392 788 406 826 q 369 733 379 749 q 413 674 390 713 q 435 604 435 636 q 382 485 435 536 q 228 433 329 433 m 238 889 q 200 878 213 889 q 185 856 188 868 q 182 825 182 844 q 231 768 182 768 q 285 829 285 768 q 283 856 285 846 q 271 878 282 867 q 238 889 260 889 m 286 662 q 276 674 286 662 q 242 686 267 686 q 188 660 217 686 q 158 597 158 635 q 178 549 158 568 q 232 529 199 529 q 290 546 274 529 q 306 596 306 563 q 286 662 306 638 z "},"⁹":{"ha":440,"x_min":26,"x_max":400,"o":"m 224 981 q 353 924 306 981 q 400 764 400 868 q 321 548 400 651 q 147 444 242 444 l 74 496 q 199 559 118 496 q 279 671 279 622 q 197 654 253 654 q 83 695 139 654 q 26 800 26 736 q 81 926 26 872 q 224 981 136 981 m 208 757 q 263 768 244 757 q 281 811 281 779 q 222 864 281 864 q 176 844 194 864 q 158 803 158 824 q 173 769 158 781 q 208 757 188 757 z "},"₀":{"ha":590,"x_min":58,"x_max":532,"o":"m 290 -11 q 122 63 185 -11 q 58 256 58 138 q 127 456 58 376 q 300 536 196 536 q 467 459 401 536 q 532 265 532 382 q 466 66 532 143 q 290 -11 400 -11 m 299 419 q 224 378 257 419 q 190 256 190 336 q 219 144 190 179 q 292 110 247 110 q 401 265 401 110 q 370 381 401 342 q 299 419 339 419 z "},"₁":{"ha":336,"x_min":57,"x_max":247,"o":"m 247 0 l 114 0 l 114 343 l 57 340 l 57 443 q 110 470 83 443 q 142 525 136 497 l 247 525 l 247 0 z "},"₂":{"ha":463,"x_min":39,"x_max":399,"o":"m 399 0 l 39 0 q 256 375 256 297 q 206 435 256 435 q 157 422 181 435 q 117 392 133 410 q 92 360 101 374 q 78 338 83 347 l 61 458 q 229 536 104 536 q 345 494 310 536 q 381 399 381 453 q 268 138 381 307 l 399 138 l 399 0 z "},"₃":{"ha":460,"x_min":42,"x_max":400,"o":"m 190 -11 q 97 3 144 -11 q 42 31 50 18 l 75 156 q 120 134 88 143 q 181 125 153 125 q 274 156 274 125 q 213 235 274 235 l 121 235 l 131 335 l 178 335 q 222 344 204 335 q 244 362 239 353 q 249 378 249 371 q 161 429 249 429 q 96 411 115 429 l 78 501 q 131 526 94 517 q 200 536 167 536 q 291 522 253 536 q 347 483 329 507 q 372 435 364 458 q 379 389 379 413 q 373 340 379 364 q 361 305 367 317 q 351 292 356 293 q 369 263 356 282 q 392 221 383 243 q 400 167 400 199 q 338 36 400 83 q 190 -11 276 -11 z "},"₄":{"ha":518,"x_min":18,"x_max":463,"o":"m 463 143 l 394 143 l 394 0 l 261 0 l 261 143 l 18 143 l 278 525 l 394 525 l 394 242 l 463 242 l 463 143 m 261 242 l 261 347 l 186 242 l 261 242 z "},"₅":{"ha":465,"x_min":53,"x_max":406,"o":"m 215 -8 q 129 8 185 -8 q 53 53 74 24 l 85 172 q 249 118 114 118 q 276 129 268 118 q 285 172 285 140 q 190 222 285 222 l 81 222 l 118 525 l 379 525 l 365 388 l 217 388 l 207 328 q 406 168 406 325 q 351 33 406 75 q 215 -8 296 -8 z "},"₆":{"ha":476,"x_min":58,"x_max":431,"o":"m 233 -11 q 106 42 154 -11 q 58 206 58 96 q 88 336 58 274 q 157 438 117 399 q 237 501 197 478 q 300 525 276 525 l 389 474 q 267 402 340 474 q 194 307 194 331 q 261 317 210 317 q 384 276 338 317 q 431 165 431 236 q 375 42 431 96 q 233 -11 319 -11 m 257 214 q 203 201 221 214 q 185 154 185 189 q 206 124 185 138 q 244 110 228 110 q 291 128 269 110 q 313 174 313 146 q 294 201 313 189 q 257 214 276 214 z "},"₇":{"ha":464,"x_min":58,"x_max":436,"o":"m 436 525 l 214 0 l 68 0 l 235 388 l 58 388 l 58 525 l 436 525 z "},"₈":{"ha":510,"x_min":58,"x_max":453,"o":"m 246 -11 q 107 29 156 -11 q 58 135 58 69 q 117 283 58 208 q 96 328 104 292 q 88 399 88 365 q 258 536 88 536 q 424 411 424 536 q 410 343 424 382 q 388 289 397 304 q 431 230 408 268 q 453 160 453 192 q 400 40 453 92 q 246 -11 347 -11 m 256 444 q 210 428 219 444 q 200 381 200 411 q 249 324 200 324 q 303 385 303 324 q 301 412 303 401 q 289 433 300 422 q 256 444 278 444 m 304 217 q 294 230 304 217 q 260 242 285 242 q 206 216 235 242 q 176 153 176 190 q 197 104 176 124 q 250 85 217 85 q 308 101 292 85 q 324 151 324 118 q 304 217 324 193 z "},"₉":{"ha":472,"x_min":40,"x_max":414,"o":"m 238 536 q 367 480 319 536 q 414 319 414 424 q 335 103 414 207 q 161 0 256 0 l 88 51 q 213 114 133 51 q 294 228 292 176 q 210 210 265 210 q 90 249 139 210 q 40 356 40 289 q 95 482 40 428 q 238 536 150 536 m 222 313 q 276 324 258 313 q 294 367 294 335 q 238 418 294 418 q 191 399 210 418 q 172 358 172 379 q 187 324 172 336 q 222 313 201 313 z "},"€":{"ha":976,"x_min":44,"x_max":903,"o":"m 651 24 q 403 94 511 24 q 244 290 294 165 l 44 290 l 86 410 l 214 410 q 210 486 210 444 l 210 506 l 85 506 l 124 618 l 225 618 q 378 860 263 771 q 651 949 493 949 q 903 897 799 949 l 883 740 q 651 796 753 796 q 410 618 464 796 l 758 618 l 717 506 l 392 506 l 392 486 q 397 410 392 442 l 732 410 l 690 290 l 436 290 q 651 176 501 176 q 883 232 753 176 l 903 75 q 651 24 799 24 z "},"™":{"ha":1026,"x_min":44,"x_max":953,"o":"m 696 590 l 681 590 l 576 763 l 539 468 l 425 468 l 493 972 l 563 972 l 689 767 l 814 972 l 885 972 l 953 468 l 838 468 l 801 763 l 696 590 m 435 972 l 421 864 l 290 864 l 290 468 l 179 468 l 179 864 l 44 864 l 44 972 l 435 972 z "}}}
